<?xml version="1.0" encoding="utf-8"?>
<!-- Generator: Adobe Illustrator 27.8.1, SVG Export Plug-In . SVG Version: 6.00 Build 0)  -->
<svg version="1.1" id="Layer_1" xmlns="http://www.w3.org/2000/svg" xmlns:xlink="http://www.w3.org/1999/xlink" x="0px" y="0px"
	 width="14.3px" height="14.3px" viewBox="0 0 14.3 14.3" style="enable-background:new 0 0 14.3 14.3;" xml:space="preserve">
<style type="text/css">
	.st0{fill:#966FD6;stroke:#966FD6;stroke-width:0.3;}
</style>
<g id="cancel" transform="translate(-16.25 -16.249)">
	<path id="Path_22477" class="st0" d="M23.4,30.4c3.9,0,7-3.1,7-7s-3.1-7-7-7s-7,3.1-7,7l0,0C16.4,27.3,19.5,30.4,23.4,30.4z
		 M23.4,17.4c3.3,0,6,2.7,6,6s-2.7,6-6,6s-6-2.7-6-6c0,0,0,0,0,0C17.4,20.1,20.1,17.4,23.4,17.4L23.4,17.4z"/>
	<g id="Group_38644" transform="translate(20.487 21.349)">
		<g id="Group_38646" transform="translate(0)">
			<path id="Path_22645" class="st0" d="M5.7,0.1C5.6,0,5.4,0,5.2,0.1c0,0,0,0,0,0L2.1,3.2L0.6,1.8c-0.1-0.1-0.4-0.1-0.5,0
				S0,2.1,0.1,2.3L1.8,4C2,4.1,2.2,4.1,2.3,4c0,0,0,0,0,0l3.4-3.4C5.9,0.5,5.9,0.2,5.7,0.1C5.7,0.1,5.7,0.1,5.7,0.1L5.7,0.1z"/>
		</g>
	</g>
</g>
</svg>
