<?xml version="1.0" encoding="utf-8"?>
<!-- Generator: Adobe Illustrator 27.8.1, SVG Export Plug-In . SVG Version: 6.00 Build 0)  -->
<svg version="1.1" id="Layer_1" xmlns="http://www.w3.org/2000/svg" xmlns:xlink="http://www.w3.org/1999/xlink" x="0px" y="0px"
	 width="14.3px" height="14.3px" viewBox="0 0 14.3 14.3" style="enable-background:new 0 0 14.3 14.3;" xml:space="preserve">
<style type="text/css">
	.st0{fill:#966FD6;stroke:#966FD6;stroke-width:0.3;}
	.st1{fill:#966FD6;stroke:#966FD6;stroke-width:0.2;}
</style>
<g id="cancel" transform="translate(-16.25 -16.249)">
	<path id="Path_22477" class="st0" d="M23.4,30.4c3.9,0,7-3.1,7-7s-3.1-7-7-7s-7,3.1-7,7l0,0C16.4,27.3,19.5,30.4,23.4,30.4z
		 M23.4,17.4c3.3,0,6,2.7,6,6s-2.7,6-6,6s-6-2.7-6-6c0,0,0,0,0,0C17.4,20.1,20.1,17.4,23.4,17.4L23.4,17.4z"/>
	<path id="Path_22478" class="st1" d="M21.3,25.5c0.2,0.2,0.4,0.2,0.6,0c0,0,0,0,0,0l1.6-1.6l1.6,1.6c0.2,0.2,0.4,0.2,0.6,0
		c0,0,0,0,0,0c0.2-0.2,0.2-0.4,0-0.6L24,23.4l1.6-1.6c0.2-0.2,0.2-0.4,0-0.6s-0.4-0.2-0.6,0l0,0l-1.6,1.6l-1.6-1.6
		c-0.2-0.2-0.4-0.2-0.6,0s-0.2,0.4,0,0.6l0,0l1.6,1.6L21.3,25C21.1,25.1,21.1,25.4,21.3,25.5z"/>
</g>
</svg>
