<?xml version="1.0" encoding="utf-8"?>
<!-- Generator: Adobe Illustrator 28.2.0, SVG Export Plug-In . SVG Version: 6.00 Build 0)  -->
<svg version="1.1" id="Layer_1" xmlns="http://www.w3.org/2000/svg" xmlns:xlink="http://www.w3.org/1999/xlink" x="0px" y="0px"
	 width="14px" height="14px" viewBox="0 0 14 14" style="enable-background:new 0 0 14 14;" xml:space="preserve">
<style type="text/css">
	.st0{fill:#966FD6;}
</style>
<path id="Path_29836" class="st0" d="M7,0C3.1,0,0,3.1,0,7s3.1,7,7,7s7-3.1,7-7S10.9,0,7,0z M8.5,10.8c-0.4,0.1-0.6,0.3-0.9,0.3
	c-0.2,0.1-0.5,0.1-0.7,0.1c-0.4,0-0.7-0.1-1-0.3c-0.2-0.2-0.4-0.5-0.4-0.8c0-0.1,0-0.3,0-0.4c0-0.1,0-0.3,0.1-0.4L6,7.7
	c0-0.2,0.1-0.3,0.1-0.4c0-0.1,0-0.2,0-0.4c0-0.2,0-0.3-0.1-0.4C5.9,6.4,5.7,6.4,5.6,6.4c-0.1,0-0.2,0-0.4,0.1C5.1,6.5,5,6.5,4.9,6.5
	L5,6c0.3-0.1,0.6-0.2,0.8-0.3c0.2-0.1,0.5-0.1,0.8-0.1c0.4,0,0.7,0.1,1,0.3C7.9,6.1,8,6.4,8,6.7c0,0.1,0,0.2,0,0.4
	c0,0.2,0,0.3-0.1,0.5L7.4,9.2c0,0.1-0.1,0.3-0.1,0.4c0,0.1,0,0.2,0,0.4c0,0.2,0,0.3,0.1,0.4c0.1,0.1,0.3,0.1,0.5,0.1
	c0.1,0,0.3,0,0.4-0.1c0.1,0,0.2-0.1,0.3-0.1L8.5,10.8z M8.4,4.4C8.2,4.6,7.9,4.7,7.6,4.7c-0.3,0-0.6-0.1-0.8-0.3
	C6.5,4,6.4,3.4,6.8,3.1c0,0,0,0,0.1-0.1c0.2-0.2,0.5-0.3,0.8-0.3c0.3,0,0.6,0.1,0.8,0.3C8.8,3.3,8.8,3.9,8.4,4.4
	C8.4,4.4,8.4,4.4,8.4,4.4L8.4,4.4z"/>
</svg>
