<svg xmlns="http://www.w3.org/2000/svg" width="202.438" height="202" viewBox="0 0 202.438 202">
  <g id="Group_42764" data-name="Group 42764" transform="translate(-1.562 6)">
    <g id="Group_38718" data-name="Group 38718">
      <path id="Path_41973" data-name="Path 41973" d="M101,0A101,101,0,1,1,0,101,101,101,0,0,1,101,0Z" transform="translate(2 -6)" fill="#f6f6f6"/>
      <path id="Path_22742" data-name="Path 22742" d="M240.213,500.415c0-.683-25.212-1.236-56.312-1.236s-56.312.553-56.312,1.236,25.212,1.236,56.312,1.236,56.312-.553,56.312-1.236" transform="translate(-78.162 -305.801)" fill="#cdcdcc"/>
      <path id="Path_22743" data-name="Path 22743" d="M50.582,88.321H12.948a8.913,8.913,0,1,1,0-17.827H50.582a8.913,8.913,0,0,1,0,17.827" transform="translate(-2.472 -43.185)" fill="#fff"/>
      <path id="Path_22744" data-name="Path 22744" d="M59.4,56.575a13.505,13.505,0,1,1-13.5-13.5,13.505,13.505,0,0,1,13.5,13.5" transform="translate(-19.841 -26.385)" fill="#d5d5d5"/>
      <path id="Path_22745" data-name="Path 22745" d="M395.447,432.053c1.647.549.409,2.865.409,4.5s.818,6.139-.819,6.957-4.092,2.455-4.092,4.092-.409,3.683-2.046,4.5-3.274.819-3.274,2.046.818,1.637.409,2.865-1.228,1.637-.819,2.046h-10.64s-2.046-3.274-1.637-5.32,2.455-2.046,2.864-3.683,2.456-2.046,2.456-3.683.819-4.092,2.046-4.911,3.683,0,4.5-1.637,0-3.274,1.228-4.092,3.683.409,4.911-.819,3.274-3.274,4.5-2.865" transform="translate(-228.432 -264.646)" fill="#ddd"/>
      <path id="Path_22746" data-name="Path 22746" d="M402.948,446.941a.2.2,0,0,0-.254-.139,13.837,13.837,0,0,1-3.212.521c.924-3.49,2.9-4.216,2.926-4.223a.2.2,0,0,0-.13-.388c-.105.035-2.58.91-3.411,5.478a6.168,6.168,0,0,1-1.807,3.028c-.789-.784-1.034-3.28-1.061-4.225a.205.205,0,0,0-.2-.2h-.006a.2.2,0,0,0-.2.21c0,.146.111,3.424,1.184,4.5a37.441,37.441,0,0,1-3.583,2.932,34.03,34.03,0,0,0-3.671,3.029,9.809,9.809,0,0,1-.069-3.085.2.2,0,0,0-.185-.223.21.21,0,0,0-.223.185c-.081.869-.2,2.777.19,3.424a6,6,0,0,0-1.41,2.265.2.2,0,0,0,.137.255.192.192,0,0,0,.058.009.2.2,0,0,0,.2-.146c.5-1.67,2.346-3.2,4.433-4.79,1.141,1.066,4.226,1.245,4.363,1.253h.011a.2.2,0,0,0,.011-.409c-.031,0-2.99-.172-4.055-1.094l.459-.346c2.649-2,5.389-4.059,5.833-6.5.034-.188.075-.361.114-.536.06,0,.117.007.178.007a14.125,14.125,0,0,0,3.246-.539.205.205,0,0,0,.139-.254" transform="translate(-237.578 -271.202)" fill="#b5b5b5"/>
      <path id="Path_22747" data-name="Path 22747" d="M363.883,433.819c-2.135,1.067,0,5.73-.409,7.366s-1.637,2.865-1.228,4.5,1.228,2.865,1.228,4.5-2.455,3.274-2.046,6.138,1.637,3.683,1.637,3.683h9a3.586,3.586,0,0,0,.818-2.455c0-1.637-2.046-3.274-1.637-4.092s2.046-2.456,1.637-5.32-1.637-2.865-2.046-4.5.409-2.455,0-3.683-2.456-2.455-2.865-3.274-1.637-4.092-4.092-2.865" transform="translate(-221.386 -265.594)" fill="#ddd"/>
      <path id="Path_22748" data-name="Path 22748" d="M376.663,454.446a.2.2,0,0,0-.288.026,19.909,19.909,0,0,1-2.122,2.2c.018-.285.028-.568.028-.846,0-1.274,0-2.569-.062-3.813a.174.174,0,0,0,0-.025,21.745,21.745,0,0,0-.35-3.159,17,17,0,0,0-2.489-4.99.2.2,0,1,0-.334.238,16.906,16.906,0,0,1,2.422,4.832,19.356,19.356,0,0,1,.306,2.438,8.967,8.967,0,0,0-2.06-1.433.2.2,0,0,0-.183.366,6.727,6.727,0,0,1,2.283,1.787c.058,1.225.059,2.5.059,3.759a24.781,24.781,0,0,1-.305,3.288,13.157,13.157,0,0,0-.207,2.392,20.07,20.07,0,0,0-2.072-.959.2.2,0,0,0-.152.38A13.02,13.02,0,0,1,373.5,462.1a12.939,12.939,0,0,1,1.258,4.178.2.2,0,0,0,.2.195h.01a.2.2,0,0,0,.194-.214,13.446,13.446,0,0,0-1.318-4.379,7.175,7.175,0,0,1,.122-2.7c.086-.62.175-1.29.236-1.963a16.774,16.774,0,0,0,2.481-2.477.2.2,0,0,0-.026-.288" transform="translate(-227.281 -271.85)" fill="#b5b5b5"/>
      <path id="Path_22749" data-name="Path 22749" d="M309.2,227.007s1.6-4.8,1.834-4.784.617,1.206.617,1.206.791-1.985,1.793-1.756,1.629,5.456.093,7.075Z" transform="translate(-189.42 -135.788)" fill="#9f9f9f"/>
      <path id="Path_22750" data-name="Path 22750" d="M192.865,226.319s-1.439-4.632-1.672-4.625-.674,1.175-.674,1.175-.693-2.022-1.7-1.841-1.894,5.37-.439,7.063Z" transform="translate(-114.93 -135.396)" fill="#9f9f9f"/>
      <path id="Path_22751" data-name="Path 22751" d="M238.807,234.053l-6.446-1.94s-5.387,10.165-9.165,16.342a46.512,46.512,0,0,1-5.363,7.025,21.541,21.541,0,0,0-6.564-1.038,20.423,20.423,0,0,0-5.693.877,46.056,46.056,0,0,1-5.217-6.863c-3.778-6.177-9.165-16.342-9.165-16.342l-6.446,1.94s-.157,4.633,4.85,19.31c2.959,8.674,6.076,13.839,8.2,16.67-.636,8.148-.4,17.255.032,18.313,1.28,3.158,25.03,3.2,26.918-.311.581-1.08.412-8.92-.259-16.423,1.973-2.245,5.841-7.608,9.471-18.249,5.007-14.677,4.85-19.31,4.85-19.31" transform="translate(-113.178 -142.194)" fill="#949494"/>
      <path id="Path_22752" data-name="Path 22752" d="M139.573,292.05l1.336.731-1.336.73-.731,1.336-.73-1.336-1.336-.73,1.336-.731.73-1.336Z" transform="translate(-83.79 -178.094)" fill="#d5d5d5"/>
      <path id="Path_22753" data-name="Path 22753" d="M240.1,215.064l1.269.694-1.269.694-.694,1.269-.694-1.269-1.269-.694,1.269-.694.694-1.269Z" transform="translate(-145.46 -130.972)" fill="#d5d5d5"/>
      <path id="Path_22754" data-name="Path 22754" d="M361.785,297.2l1.384.757-1.384.757-.757,1.384-.757-1.384-1.384-.757,1.384-.757.757-1.384Z" transform="translate(-219.856 -181.217)" fill="#d5d5d5"/>
      <path id="Path_22755" data-name="Path 22755" d="M228.36,403.257H165.045a4.318,4.318,0,0,1-4.317-4.317V344.887a4.317,4.317,0,0,1,4.317-4.317H228.36a4.317,4.317,0,0,1,4.317,4.317v54.052a4.318,4.318,0,0,1-4.317,4.317" transform="translate(-98.463 -208.636)" fill="#d5d5d5"/>
      <path id="Path_22756" data-name="Path 22756" d="M228.195,365.236H158.9a3.323,3.323,0,0,1-3.308-3.634l1.7-18.022a3.322,3.322,0,0,1,3.308-3.011h65.9a3.323,3.323,0,0,1,3.308,3.011l1.7,18.022a3.322,3.322,0,0,1-3.308,3.634" transform="translate(-95.306 -208.635)" fill="#b7b7b7"/>
      <path id="Path_22757" data-name="Path 22757" d="M249.182,286.527c.218-1.158.195-2.35.292-3.078,0,0,2.991-.055,2.995-.023.044.387.246,2.8.266,3.084.077,1.091-3.783,1.238-3.552.017" transform="translate(-152.645 -173.623)" fill="#9f9f9f"/>
      <path id="Path_22758" data-name="Path 22758" d="M251.728,267.147c-.39-.362-2.611-.557-3.668-.557-.435,0-1.137-.4-1.758-.334a3.751,3.751,0,0,0-1.91.891c-.389.362-.027,4.341.195,5.092a3.584,3.584,0,0,0,6.946,0c.223-.751.585-4.73.195-5.092" transform="translate(-149.611 -163.106)" fill="#9f9f9f"/>
      <path id="Path_22759" data-name="Path 22759" d="M251.662,261.918a1.233,1.233,0,0,0-.846-2.075s.488-1.538-1.343-1.49-5.1,1.061-5.492,3.863a14.43,14.43,0,0,0,.434,6.228,3.614,3.614,0,0,0,3.393,2.262,3.406,3.406,0,0,0,3.259-2.283,11.252,11.252,0,0,0,.74-4.682,1.21,1.21,0,0,0,.351-.114c1.245-.635-.823-1.538-.5-1.709m-1.851,6.143a4.029,4.029,0,0,0-2.018-.564,3.721,3.721,0,0,0-1.968.464c-.944.427-1.849-3.283-1.066-4.369s1.051-1.139,1.3-1.976a4.381,4.381,0,0,0,2.831,1.086.569.569,0,0,0,.409-.676,6.342,6.342,0,0,0,1.56,1.567c.605.433-.1,4.9-1.047,4.468" transform="translate(-149.373 -158.268)"/>
      <path id="Path_22760" data-name="Path 22760" d="M352.3,132.628H327.347a5.911,5.911,0,0,1,0-11.822H352.3a5.911,5.911,0,0,1,0,11.822" transform="translate(-196.914 -74.007)" fill="#d5d5d5"/>
      <path id="Path_22761" data-name="Path 22761" d="M358.151,111.576a8.956,8.956,0,1,1-8.956-8.956,8.956,8.956,0,0,1,8.956,8.956" transform="translate(-208.434 -62.866)" fill="#d5d5d5"/>
      <path id="Path_22762" data-name="Path 22762" d="M56.009,86.942H19.382a8.674,8.674,0,1,1,0-17.349H56.009a8.674,8.674,0,1,1,0,17.349" transform="translate(-6.56 -42.633)" fill="#d5d5d5"/>
    </g>
  </g>
</svg>
