<svg xmlns="http://www.w3.org/2000/svg" xmlns:xlink="http://www.w3.org/1999/xlink" width="142.323" height="127.783" viewBox="0 0 142.323 127.783">
  <defs>
    <clipPath id="clip-path">
      <rect id="Rectangle_1397" data-name="Rectangle 1397" width="18.653" height="23.699" fill="#d5d5d5"/>
    </clipPath>
  </defs>
  <g id="Group_38607" data-name="Group 38607" transform="translate(-112.654 -235.578)">
    <path id="Path_22640" data-name="Path 22640" d="M28.106,77.752h5.5v-5.5h-5.5Zm7.042,0h5.5v-5.5h-5.5ZM28.106,70.71h5.5v-5.5h-5.5Zm7.042,0h5.5v-5.5h-5.5ZM8.512,56.975H12.46L35.3,41.417,33.332,40.07ZM73.937,46.36l3.426-1.218v3.426l-3.426,1.218Zm0-4.973,3.426-1.218v3.426l-3.426,1.218ZM68.207,38.27l3.426-1.218v3.425L68.207,41.7Zm5.731-1.856L77.363,35.2v3.426L73.937,39.84ZM68.207,33.3l3.426-1.218v3.426l-3.426,1.218Zm5.731-1.856,3.426-1.218v3.426l-3.426,1.218ZM62.476,30.181,65.9,28.963v3.426l-3.426,1.218Zm5.731-1.856,3.426-1.218v3.426L68.207,31.75ZM56.746,27.064l3.426-1.218v3.426L56.746,30.49Zm17.192-.6,3.426-1.218v3.425l-3.426,1.218ZM62.476,25.208,65.9,23.99v3.425l-3.426,1.218Zm5.731-1.856,3.426-1.218V25.56l-3.426,1.218ZM56.746,22.091l3.426-1.218V24.3l-3.426,1.218ZM73.937,21.5l3.426-1.218V23.7l-3.426,1.219ZM62.476,20.235,65.9,19.017v3.426l-3.426,1.218Zm5.731-1.856,3.426-1.218v3.426L68.207,21.8ZM56.746,17.119,60.171,15.9v3.426l-3.426,1.218Zm17.192-.6,3.426-1.218v3.426l-3.426,1.218ZM62.476,15.263,65.9,14.045V17.47l-3.426,1.218Zm5.731-1.856,3.426-1.218v3.426l-3.426,1.218Zm5.731-1.856,3.426-1.218v3.426l-3.426,1.218ZM82.1,0l-36.312,15.2V36.494l-12.7-2.862L0,56.17H4.237L33.269,36.238,71.427,62.352H65.345v39.878H.043v2.079H134.977v-2.079H118.184V47.8l-10.477,4.387V98H96.537L96.222,57l11.485-4.809v-18.9L86.754,24.509V98H82.1Z" transform="translate(120 259.053)" fill="#d5d5d5"/>
    <g id="search" transform="matrix(-0.985, 0.174, -0.174, -0.985, 212.758, 320.677)">
      <g id="Group_38604" data-name="Group 38604" transform="translate(0 0)">
        <path id="Path_22641" data-name="Path 22641" d="M.527,3.073,26.82,29.366a34.335,34.335,0,1,0,2.546-2.546L3.073.527A1.8,1.8,0,1,0,.527,3.073ZM52.207,21.6a30.6,30.6,0,1,1-30.6,30.6A30.639,30.639,0,0,1,52.207,21.6Z" fill="#b6b6b6"/>
      </g>
    </g>
    <g id="Group_38606" data-name="Group 38606" transform="translate(126.706 337.682)">
      <g id="Group_38605" data-name="Group 38605" clip-path="url(#clip-path)">
        <path id="Path_22642" data-name="Path 22642" d="M16,2.763a9.426,9.426,0,0,0-13.334,0A8.829,8.829,0,0,0,0,9.1a11.189,11.189,0,0,0,2.66,6.993l5.382,6.978a1.623,1.623,0,0,0,2.571,0L16,16.089A11.186,11.186,0,0,0,18.654,9.1,8.829,8.829,0,0,0,16,2.763" transform="translate(-0.001)" fill="#d5d5d5"/>
        <path id="Path_22643" data-name="Path 22643" d="M54.455,58.014a3.91,3.91,0,1,0-3.91-3.91,3.91,3.91,0,0,0,3.91,3.91" transform="translate(-45.128 -44.815)" fill="#fff"/>
      </g>
    </g>
  </g>
</svg>
