<svg xmlns="http://www.w3.org/2000/svg" width="218" height="218" viewBox="0 0 218 218">
  <g id="Group_38716" data-name="Group 38716" transform="translate(-0.393 -0.408)">
    <g id="Group_38700" data-name="Group 38700" transform="translate(0.393 0.408)">
      <circle id="Ellipse_372" data-name="Ellipse 372" cx="109" cy="109" r="109" fill="#f6f6f6"/>
    </g>
    <path id="Path_22710" data-name="Path 22710" d="M321.443,679.495c0,.706-26.19,1.295-58.471,1.295S204.5,680.2,204.5,679.495s26.19-1.295,58.471-1.295S321.443,678.789,321.443,679.495Z" transform="translate(-144.25 -478.539)" fill="#ddd"/>
    <g id="Group_38702" data-name="Group 38702" transform="translate(137.407 40.315)">
      <path id="Path_22711" data-name="Path 22711" d="M499.393,181.206H472.968a6.282,6.282,0,0,1-6.268-6.268h0a6.229,6.229,0,0,1,6.239-6.239h26.425a6.229,6.229,0,0,1,6.238,6.239h0a6.229,6.229,0,0,1-6.238,6.239Z" transform="translate(-466.7 -159.285)" fill="#d5d5d5"/>
      <circle id="Ellipse_373" data-name="Ellipse 373" cx="9.475" cy="9.475" r="9.475" transform="translate(5.782 18.435) rotate(-76.6)" fill="#d5d5d5"/>
    </g>
    <g id="Group_38703" data-name="Group 38703" transform="translate(9.9 17.773)">
      <path id="Path_22712" data-name="Path 22712" d="M81.4,115.662H42.581a9.263,9.263,0,0,1-6.5-2.678,9.139,9.139,0,0,1-2.678-6.5h0a9.31,9.31,0,0,1,1.412-4.914A9.189,9.189,0,0,1,42.581,97.3H81.4a9.263,9.263,0,0,1,6.5,2.678,9.139,9.139,0,0,1,2.678,6.5h0a9.163,9.163,0,0,1-9.181,9.181Z" transform="translate(-33.4 -86.353)" fill="#d5d5d5"/>
      <circle id="Ellipse_374" data-name="Ellipse 374" cx="13.919" cy="13.919" r="13.919" transform="translate(11.329)" fill="#d5d5d5"/>
    </g>
    <g id="Group_38705" data-name="Group 38705" transform="translate(70.049 63.355)">
      <g id="Group_38704" data-name="Group 38704">
        <rect id="Rectangle_1438" data-name="Rectangle 1438" width="67.711" height="136.365" rx="9" transform="translate(1.207 1.177)" fill="#fff"/>
        <path id="Path_22713" data-name="Path 22713" d="M295.359,353.748H250.336A12.546,12.546,0,0,1,237.8,341.212V227.536A12.546,12.546,0,0,1,250.336,215h45.023A12.546,12.546,0,0,1,307.9,227.536V341.212A12.546,12.546,0,0,1,295.359,353.748ZM250.365,217.384a10.173,10.173,0,0,0-10.152,10.152V341.212a10.173,10.173,0,0,0,10.152,10.152h45.023a10.173,10.173,0,0,0,10.152-10.152V227.536a10.173,10.173,0,0,0-10.152-10.152Z" transform="translate(-237.8 -215)" fill="#ddd"/>
      </g>
      <path id="Path_22714" data-name="Path 22714" d="M323.312,655.713H279.406a1.212,1.212,0,0,1-1.207-1.206,1.193,1.193,0,0,1,1.207-1.206h43.905a1.212,1.212,0,0,1,1.207,1.206A1.193,1.193,0,0,1,323.312,655.713Z" transform="translate(-266.311 -524.322)" fill="#ddd"/>
      <path id="Path_22715" data-name="Path 22715" d="M271.314,245.107a2.207,2.207,0,1,1-2.207-2.207A2.2,2.2,0,0,1,271.314,245.107Z" transform="translate(-258.337 -234.69)" fill="#b6b6b7"/>
    </g>
    <path id="Path_22716" data-name="Path 22716" d="M311.943,374.108c2.619-2.8,6.239-4.208,10.829-4.208s7.651,1.206,10.211,3.59a12.015,12.015,0,0,1,3.826,9.181c0,3.708-.471,4.09-1.383,5.5a41.033,41.033,0,0,1-5.709,6.209,18.428,18.428,0,0,0-4.09,5.032,15.5,15.5,0,0,0-.942,6.091h-5.679a20.314,20.314,0,0,1,1.089-7.357,19.8,19.8,0,0,1,4.826-6.415l2.619-2.531a11.187,11.187,0,0,0,1.913-2.266,7.925,7.925,0,0,0,1.324-4.326,9.637,9.637,0,0,0-1.913-5.444c-1.265-1.53-3.384-2.3-6.327-2.3s-6.15,1.324-7.533,3.973a14.643,14.643,0,0,0-1.324,6.356H308C308,380.611,309.324,376.9,311.943,374.108Zm6.945,36.7h6.356v6.651h-6.356Z" transform="translate(-217.293 -260.963)" fill="#d5d5d5"/>
    <g id="Group_38710" data-name="Group 38710" transform="translate(47.947 161.792)">
      <path id="Path_22717" data-name="Path 22717" d="M190.6,679.495c0,.706-3.884,1.295-8.652,1.295s-8.652-.589-8.652-1.295,3.884-1.295,8.652-1.295S190.6,678.789,190.6,679.495Z" transform="translate(-170.178 -640.331)" fill="#ddd"/>
      <g id="Group_38709" data-name="Group 38709">
        <g id="Group_38706" data-name="Group 38706">
          <path id="Path_22718" data-name="Path 22718" d="M162.723,550.01c-.294,1.53,1.53,1.824,1.824,3.943s-.618,2.737-.294,3.943,2.119,1.53,2.413,4.561-.912,2.737-.618,4.561,2.119,1.824,2.413,3.325a37.5,37.5,0,0,0,.912,5.444c.618,1.824,2.413,4.561,3.325,4.561s3.325-5.15,2.737-6.68-1.53-1.824-1.53-3.031,1.207-4.238.912-6.356-3.031-3.031-3.325-4.561.618-5.444-1.53-7.268c-2.119-1.824-6.974-3.943-7.268-2.413Z" transform="translate(-162.691 -549.513)" fill="#d9d9d9"/>
          <path id="Path_22719" data-name="Path 22719" d="M176.222,584.009a.139.139,0,0,1-.147-.147c0-.029,0-3.973-1.177-5.12-1.177-1.177-1.854-4.767-2.178-11.624-.294-6.239-4.767-11.388-4.826-11.418a.146.146,0,0,1,.206-.206c.059.059,4.591,5.267,4.885,11.624.324,6.68.971,10.329,2.089,11.418,1.236,1.236,1.265,5.179,1.265,5.356a.139.139,0,0,1-.147.147h0Z" transform="translate(-166.332 -553.703)" fill="#b5b5b5"/>
        </g>
        <g id="Group_38707" data-name="Group 38707" transform="translate(10.199 4.315)">
          <path id="Path_22720" data-name="Path 22720" d="M214.932,564.948c1.059,1.059-2.413,1.53-2.737,3.649s-.294,3.031-1.53,4.238c-1.207,1.206-3.031,1.53-2.737,3.325.294,1.824.912,3.649,0,4.561s-3.031.912-3.649,2.413-.294,3.325-1.53,4.855c-1.207,1.53-3.031,4.561-4.561,3.943s-.618-7.592,0-8.8a7.612,7.612,0,0,0,1.206-3.031,9.589,9.589,0,0,1,.294-3.943c.618-1.53,3.943-2.119,4.237-3.031s.618-5.768,2.413-6.974c1.824-1.207,6.68-3.031,8.5-1.207Z" transform="translate(-197.348 -564.176)" fill="#d9d9d9"/>
          <path id="Path_22721" data-name="Path 22721" d="M201.619,595.443h-.088a.182.182,0,0,1-.059-.206,16.136,16.136,0,0,0,1.471-3.09c.059-.265.147-.677.235-1.118.324-1.677.853-4.237,1.618-5,1.118-1.118,2.943-4.591,4.208-9.034a10.911,10.911,0,0,1,6.768-7.092c.088,0,.177,0,.177.088s0,.177-.088.177a10.441,10.441,0,0,0-6.562,6.856c-1.295,4.473-3.119,8-4.3,9.152s-1.236,3.3-1.53,4.855c-.088.471-.177.883-.235,1.148a16.4,16.4,0,0,1-1.53,3.149c0,.059-.088.059-.118.059Z" transform="translate(-200.251 -568.216)" fill="#b5b5b5"/>
        </g>
        <g id="Group_38708" data-name="Group 38708" transform="translate(8.57 8.523)">
          <path id="Path_22722" data-name="Path 22722" d="M194.43,578.512c-3.649.294-2.413,11.212-2.413,11.212.912,9.387,2.119,13.654,3.031,13.948s2.737-13.33,2.737-16.685c0,0,.294-8.8-3.325-8.5Z" transform="translate(-191.815 -578.475)" fill="#d9d9d9"/>
          <path id="Path_22723" data-name="Path 22723" d="M201.312,604.447h0a.13.13,0,0,1-.118-.177c1.207-9.887-.294-22.276-.294-22.394a.15.15,0,0,1,.294-.059c0,.118,1.5,12.565.294,22.482a.158.158,0,0,1-.147.147Z" transform="translate(-198.227 -580.751)" fill="#b5b5b5"/>
        </g>
        <path id="Path_22724" data-name="Path 22724" d="M190.766,656.429h-9.24a.555.555,0,0,1-.589-.441l-1.354-9.564a.714.714,0,0,1,.706-.824h11.683a.714.714,0,0,1,.706.824l-1.354,9.564a.583.583,0,0,1-.589.441Z" transform="translate(-174.608 -617.325)" fill="#ddd"/>
      </g>
    </g>
    <g id="Group_38711" data-name="Group 38711" transform="translate(146.088 155.667)">
      <path id="Path_22725" data-name="Path 22725" d="M519.883,590.666h3.708V555h1.824v14.1h2.825V555h1.824v15.891h-4.62v19.775h3.708a.912.912,0,0,1,0,1.824h-9.24a.912.912,0,0,1,0-1.824Z" transform="translate(-512.291 -547.261)" fill="#d5d5d5"/>
      <path id="Path_22726" data-name="Path 22726" d="M510.5,528.7c7.886,0,14.3,1.5,14.3,3.325v1.8c0,1.824-6.386,3.325-14.3,3.325-7.886,0-14.3-1.5-14.3-3.325v-1.8C496.2,530.2,502.586,528.7,510.5,528.7Z" transform="translate(-496.2 -528.7)" fill="#d5d5d5"/>
    </g>
    <g id="Group_38715" data-name="Group 38715" transform="translate(113.777 94.369)">
      <g id="Group_38712" data-name="Group 38712" transform="translate(7.161 0)">
        <circle id="Ellipse_375" data-name="Ellipse 375" cx="9.417" cy="9.417" r="9.417" transform="translate(0 16.66) rotate(-62.2)" fill="#fff" opacity="0"/>
        <path id="Path_22727" data-name="Path 22727" d="M457.36,342.006a.785.785,0,0,1-.765-.559,4.21,4.21,0,0,0-5.267-2.766.8.8,0,1,1-.471-1.53,5.632,5.632,0,0,1,4.414.412,5.767,5.767,0,0,1,2.854,3.414.819.819,0,0,1-.53,1c-.088,0-.147.029-.235.029Z" transform="translate(-438.654 -332.029)" fill="#7d7d7d" opacity="0.2"/>
        <path id="Path_22728" data-name="Path 22728" d="M423.684,326.269a11.281,11.281,0,1,0,14.125,7.416A11.285,11.285,0,0,0,423.684,326.269Zm6.18,19.746a9.419,9.419,0,1,1,6.18-11.8A9.406,9.406,0,0,1,429.864,346.014Z" transform="translate(-414.277 -324.177)" fill="#999"/>
        <rect id="Rectangle_1439" data-name="Rectangle 1439" width="1.972" height="8.946" transform="translate(15.025 23.71) rotate(-17.3)" fill="#999"/>
        <path id="Path_22729" data-name="Path 22729" d="M473.7,440.133h0a2.272,2.272,0,0,1-2.854-1.5l-4.09-13.124a1.181,1.181,0,0,1,.795-1.5l2.03-.647a1.181,1.181,0,0,1,1.5.795l4.09,13.124a2.272,2.272,0,0,1-1.5,2.854Z" transform="translate(-450.231 -393.018)" fill="#999"/>
      </g>
      <g id="Group_38714" data-name="Group 38714" transform="translate(0 11.886)">
        <path id="Path_22730" data-name="Path 22730" d="M476.225,445.6a42.372,42.372,0,0,1-5.5-3.943c-1.265-1.354-1.824-1.972-1.471-2.236s3.884,1.295,4.237,1.03.029-.912.441-1.207c.383-.294,2.678,2.06,3.237,1.883s-.294,4.09-.912,4.5Z" transform="translate(-444.796 -416.135)" fill="#9f9f9f"/>
        <path id="Path_22731" data-name="Path 22731" d="M409.747,605.375l-3.09,3-7.857-7.268,2.59-4.208Z" transform="translate(-395.151 -527.419)" fill="#9f9f9f"/>
        <path id="Path_22732" data-name="Path 22732" d="M398.347,616.341s-2.148,2.707-2.56,2.707-9.446-9.8-9.387-10.093c.059-.324,4,0,4,0Z" transform="translate(-386.399 -535.825)"/>
        <path id="Path_22733" data-name="Path 22733" d="M405.9,518.969s9.064,9.475,9.417,9.475,43.611-33.223,43.611-33.223L440.594,487.1S417.318,493.515,405.9,518.969Z" transform="translate(-400.161 -449.93)" fill="#565656"/>
        <path id="Path_22734" data-name="Path 22734" d="M518.965,605.1l1.53,4.031-9.74,4.355-2.854-4.031Z" transform="translate(-472.146 -533.206)" fill="#9f9f9f"/>
        <path id="Path_22735" data-name="Path 22735" d="M477.9,487.029s-15.3,3.208-16.626,8.387-.118,10.859,4.09,17.48,8.5,13.831,9.387,14.066c0,0,11.329-4.532,11.594-5.12.265-.559-6.356-16.185-6.356-16.185s13.448-.883,16.6-8.828L477.87,487Z" transform="translate(-438.879 -449.859)" fill="#565656"/>
        <path id="Path_22736" data-name="Path 22736" d="M515.3,423.105c-.147.912,16.6,11.388,19.54,10.888,2.972-.5,6.8-12.712,5.738-21.864-1.059-9.122-9.24-15.979-12.948-15.655-3.737.324-5.709,3.826-6.239,9.358-.736,8.151-5.944,16.244-6.091,17.244Z" transform="translate(-477.366 -385.964)" fill="#949494"/>
        <path id="Path_22737" data-name="Path 22737" d="M512.009,401.187c1.972-.177,8.769,3.8,10.329,15.537,1.589,11.741-4.885,12.712-10.329,11.977-5.444-.765-19.157-7.474-21.158-9.887,0,0-.441-3.8,1.03-5.12,0,0,13.213,1.354,16.656,2.384S504.535,401.863,512.009,401.187Z" transform="translate(-460.07 -389.294)" fill="#949494"/>
        <path id="Path_22738" data-name="Path 22738" d="M522.344,616.729s1.648,3.06,1.471,3.414c-.147.383-12.712,4.855-12.977,4.649s1.589-3.678,1.589-3.678l9.917-4.414Z" transform="translate(-474.201 -541.392)"/>
        <g id="Group_38713" data-name="Group 38713" transform="translate(39.344)">
          <path id="Path_22739" data-name="Path 22739" d="M525.059,370.109,525,374.317h.618s.5,3.443,2.943,2.913c.706-.147,1.589-.765,1.854-.647.294.147.441,1.089.5,1.354.265,1.059,3.943,0,3.355-1.089-.559-1.03-1.412-2.413-1.236-2.8a4.248,4.248,0,0,0-2.59-5.827c-2.707-.883-5.385.471-5.415,1.883Z" transform="translate(-523.558 -365.838)" fill="#9f9f9f"/>
          <path id="Path_22740" data-name="Path 22740" d="M547.073,391.5c-.559-1.03-1.412-2.413-1.236-2.8,0,0-1.412,2.178-2.737,2.5h.118c.294.147.441,1.089.5,1.354.265,1.059,3.943,0,3.355-1.089Z" transform="translate(-536.332 -380.486)" fill="#9f9f9f"/>
          <path id="Path_22741" data-name="Path 22741" d="M527.28,367.117c1.589-.265.589,3.237,2.325,3.119s2.943-3.914,1.677-6.856-3.708-2.766-6.033-2.384c-2.325.412-5.15,1.442-5.15,3.208,0,4.208,5,.677,5.326,1.942.265.971.647,3.826-.383,3.884s-2.06-.765-2.854-.559c-.471.118-1.736,5.65,1.589,5.827,3.3.177,4.12-2.707,3.414-5.091-.647-2.266-.736-2.972.059-3.119Z" transform="translate(-520.1 -360.786)"/>
        </g>
      </g>
    </g>
  </g>
</svg>
