<svg xmlns="http://www.w3.org/2000/svg" width="33" height="33" viewBox="0 0 33 33">
  <g id="Group_42654" data-name="Group 42654" transform="translate(-107.231 -431.231)">
    <circle id="Ellipse_431" data-name="Ellipse 431" cx="16.5" cy="16.5" r="16.5" transform="translate(107.231 431.231)" fill="#fff"/>
    <g id="google" transform="translate(113.146 437.146)">
      <path id="Path_22540" data-name="Path 22540" d="M276.825,211.479h-8.977a.718.718,0,0,0-.718.718v2.868a.718.718,0,0,0,.718.718H272.9a6.748,6.748,0,0,1-2.9,3.4l2.155,3.731a10.79,10.79,0,0,0,5.5-9.436,7.275,7.275,0,0,0-.124-1.409A.721.721,0,0,0,276.825,211.479Z" transform="translate(-255.649 -202.389)" fill="#167ee6"/>
      <path id="Path_22541" data-name="Path 22541" d="M43.936,337.2a6.7,6.7,0,0,1-5.793-3.352L34.411,336a10.995,10.995,0,0,0,15.026,4.033v-.005l-2.155-3.731A6.648,6.648,0,0,1,43.936,337.2Z" transform="translate(-32.932 -319.497)" fill="#12b347"/>
      <path id="Path_22542" data-name="Path 22542" d="M261.5,394.515v-.005l-2.155-3.731a6.648,6.648,0,0,1-3.346.9v4.306A10.984,10.984,0,0,0,261.5,394.515Z" transform="translate(-244.996 -373.982)" fill="#0f993e"/>
      <path id="Path_22543" data-name="Path 22543" d="M4.306,133.616a6.648,6.648,0,0,1,.9-3.346l-3.731-2.151a10.953,10.953,0,0,0,0,10.993l3.731-2.151A6.648,6.648,0,0,1,4.306,133.616Z" transform="translate(0 -122.612)" fill="#ffd500"/>
      <path id="Path_22544" data-name="Path 22544" d="M43.936,4.306a6.667,6.667,0,0,1,4.252,1.527.715.715,0,0,0,.962-.043l2.032-2.032A.723.723,0,0,0,51.14,2.7,10.98,10.98,0,0,0,34.411,5.507l3.731,2.151A6.7,6.7,0,0,1,43.936,4.306Z" transform="translate(-32.932 0)" fill="#ff4b26"/>
      <path id="Path_22545" data-name="Path 22545" d="M260.252,5.832a.715.715,0,0,0,.962-.043l2.032-2.032A.723.723,0,0,0,263.2,2.7,10.97,10.97,0,0,0,256,0V4.306A6.667,6.667,0,0,1,260.252,5.832Z" transform="translate(-244.996 0)" fill="#d93f21"/>
    </g>
  </g>
</svg>
