<?xml version="1.0" encoding="utf-8"?>
<!-- Generator: Adobe Illustrator 27.8.0, SVG Export Plug-In . SVG Version: 6.00 Build 0)  -->
<svg version="1.1" id="Layer_1" xmlns="http://www.w3.org/2000/svg" xmlns:xlink="http://www.w3.org/1999/xlink" x="0px" y="0px"
	 viewBox="0 0 30 30" style="enable-background:new 0 0 30 30;" xml:space="preserve">
<style type="text/css">
	.st0{fill:#BBBBBB;stroke:#FFFFFF;stroke-width:1.5;}
</style>
<path id="heart" class="st0" d="M15,27.1c-0.1,0-0.3,0-0.4-0.1c-2.4-1.4-4.6-3-6.7-4.8c-1.8-1.5-3.3-3.1-4.7-5
	c-1.3-1.7-2.1-3.8-2.2-6C1,9,1.8,6.9,3.2,5.3c1.4-1.5,3.3-2.4,5.4-2.4c2.7,0,5.1,1.5,6.4,3.8c1.3-2.3,3.7-3.7,6.4-3.8
	c2,0,3.8,0.8,5.2,2.2c1.6,1.6,2.4,3.8,2.4,6.1c-0.1,2.2-0.9,4.3-2.2,6c-1.3,1.9-2.9,3.5-4.7,5C20,24,17.8,25.6,15.4,27
	C15.3,27.1,15.1,27.1,15,27.1z"/>
</svg>
