<?xml version="1.0" encoding="utf-8"?>
<!-- Generator: Adobe Illustrator 27.8.1, SVG Export Plug-In . SVG Version: 6.00 Build 0)  -->
<svg version="1.1" id="Layer_1" xmlns="http://www.w3.org/2000/svg" xmlns:xlink="http://www.w3.org/1999/xlink" x="0px" y="0px"
	 width="10.8px" height="14.3px" viewBox="0 0 10.8 14.3" style="enable-background:new 0 0 10.8 14.3;" xml:space="preserve">
<style type="text/css">
	.st0{fill:#966FD6;stroke:#966FD6;stroke-width:0.3;}
</style>
<g id="task" transform="translate(-4.489 -1.85)">
	<path id="Path_22476" class="st0" d="M13,3.2h-1c0.1-0.6-0.3-1.1-0.9-1.2c0,0-0.1,0-0.2,0H8.8c-0.6,0-1.1,0.5-1,1.1
		c0,0,0,0.1,0,0.1h-1c-1.2,0-2.2,1-2.2,2.2v8.5c0,1.2,1,2.2,2.2,2.2H13c1.2,0,2.2-1,2.2-2.2V5.4C15.1,4.2,14.2,3.2,13,3.2L13,3.2z
		 M8.5,3c0-0.2,0.2-0.4,0.4-0.4c0,0,0,0,0,0h2.1c0.5,0,0.3,0.7,0.4,1.1c0,0.2-0.2,0.4-0.4,0.4H8.8C8.3,4.1,8.5,3.4,8.5,3L8.5,3z
		 M14.5,13.8c0,0.8-0.7,1.5-1.5,1.5H6.8c-0.8,0-1.5-0.7-1.5-1.5V5.4c0-0.8,0.7-1.5,1.5-1.5h1c0.1,0.5,0.5,0.9,1,0.9h2.1
		c0.5,0,0.9-0.4,1-0.9h1c0.8,0,1.5,0.7,1.5,1.5L14.5,13.8z M9.6,6.8l-1.5,2C8,8.9,7.8,9,7.6,8.9c0,0,0,0,0,0L6.7,8
		C6.4,7.7,6.9,7.2,7.2,7.5l0.6,0.6l1.3-1.7c0.1-0.1,0.3-0.2,0.5,0C9.7,6.5,9.7,6.7,9.6,6.8L9.6,6.8z M12.8,8.9H10
		c-0.2,0-0.3-0.1-0.4-0.3c0-0.2,0.1-0.3,0.3-0.4c0,0,0,0,0.1,0h2.8c0.2,0,0.3,0.1,0.4,0.3S13,8.9,12.8,8.9
		C12.8,8.9,12.8,8.9,12.8,8.9L12.8,8.9z M9.6,10.8l-1.5,2C8,12.9,7.8,13,7.6,12.9c0,0,0,0,0,0L6.7,12c-0.3-0.3,0.2-0.8,0.5-0.5
		l0.6,0.6l1.3-1.7c0.1-0.1,0.3-0.2,0.5,0C9.7,10.5,9.7,10.7,9.6,10.8L9.6,10.8z M12.8,12.9H10c-0.2,0-0.3-0.1-0.4-0.3
		c0-0.2,0.1-0.3,0.3-0.4c0,0,0,0,0.1,0h2.8c0.2,0,0.3,0.1,0.4,0.3S13,12.9,12.8,12.9C12.8,12.9,12.8,12.9,12.8,12.9L12.8,12.9z"/>
</g>
</svg>
