<?xml version="1.0" encoding="utf-8"?>
<!-- Generator: Adobe Illustrator 27.8.1, SVG Export Plug-In . SVG Version: 6.00 Build 0)  -->
<svg version="1.1" id="Group_11876" xmlns="http://www.w3.org/2000/svg" xmlns:xlink="http://www.w3.org/1999/xlink" x="0px"
	 y="0px" width="16.2px" height="11.4px" viewBox="0 0 16.2 11.4" style="enable-background:new 0 0 16.2 11.4;"
	 xml:space="preserve">
<style type="text/css">
	.st0{fill:#966FD6;}
</style>
<path id="Path_25724" class="st0" d="M14.8,0H1.4C0.6,0,0,0.6,0,1.4V10c0,0.8,0.6,1.4,1.4,1.4h13.4c0.8,0,1.4-0.6,1.4-1.4V1.4
	C16.2,0.6,15.6,0,14.8,0z M14.6,0.9L9.1,6.4C8.6,7,7.7,7,7.1,6.4c0,0,0,0,0,0L1.6,0.9H14.6z M0.9,9.8V1.6L5,5.7L0.9,9.8z M1.6,10.4
	l4.1-4.1l0.7,0.7C7.4,8,8.9,8,9.8,7.1l0.7-0.7l4.1,4.1L1.6,10.4z M15.3,9.8l-4.1-4.1l4.1-4.1V9.8z"/>
</svg>
