<svg xmlns="http://www.w3.org/2000/svg" width="46" height="46" viewBox="0 0 46 46">
  <g id="Group_38666" data-name="Group 38666" transform="translate(-60 -1323)">
    <path id="Path_22658" data-name="Path 22658" d="M23,0A23,23,0,1,1,0,23,23,23,0,0,1,23,0Z" transform="translate(60 1323)" fill="#fff"/>
    <path id="Path_22098" data-name="Path 22098" d="M17.078,23.166A1.3,1.3,0,0,0,18,20.948l-6.877-6.864L18,7.22a1.3,1.3,0,0,0-1.842-1.842L8.371,13.163a1.3,1.3,0,0,0,0,1.829l7.785,7.785a1.3,1.3,0,0,0,.921.389Z" transform="translate(69.406 1331.743)"/>
  </g>
</svg>
