<svg xmlns="http://www.w3.org/2000/svg" width="20.166" height="17.724" viewBox="0 0 20.166 17.724">
  <g id="calendar" transform="translate(-2.178 -31)">
    <path id="Path_22551" data-name="Path 22551" d="M.591,46.361H3.545v1.772a.591.591,0,0,0,.591.591H19.575a.591.591,0,0,0,.591-.591V32.772a.591.591,0,0,0-.591-.591H16.621v-.591a.591.591,0,0,0-1.182,0v.591H12.446v-.591a.591.591,0,0,0-1.182,0v.591H8.31v-.591a.591.591,0,0,0-1.182,0v.591H4.135a.591.591,0,0,0-.591.591v3.545c0,4.354-1.81,7.7-3.332,9a.591.591,0,0,0,.378,1.045Zm18.393,1.182H4.726V46.361h11.3a.591.591,0,0,0,.378-.137,10.9,10.9,0,0,0,2.576-3.8ZM4.726,33.363h2.4v.591a.591.591,0,1,0,1.182,0v-.591h2.954v.591a.591.591,0,1,0,1.182,0v-.591h2.993v.591a.591.591,0,1,0,1.182,0v-.591h2.363v2.363H4.726Zm-.01,3.544H18.973A12.382,12.382,0,0,1,15.8,45.179H1.934a14.218,14.218,0,0,0,2.782-8.271Z" transform="translate(2.179)" fill="#131313"/>
  </g>
</svg>
