<?xml version="1.0" encoding="utf-8"?>
<!-- Generator: Adobe Illustrator 28.3.0, SVG Export Plug-In . SVG Version: 6.00 Build 0)  -->
<svg version="1.1" id="Isolation_Mode" xmlns="http://www.w3.org/2000/svg" xmlns:xlink="http://www.w3.org/1999/xlink" x="0px"
	 y="0px" width="143px" height="145.7px" viewBox="0 0 143 145.7" style="enable-background:new 0 0 143 145.7;"
	 xml:space="preserve">
<style type="text/css">
	.st0{fill:#FFFFFF;}
	.st1{fill:#F7F7F7;}
	.st2{fill:#D5D5D5;}
</style>
<g>
	<path class="st0" d="M8.8,7.4h125.3c2,0,3.5,1.5,3.5,3.3v126.7c0,1.8-1.6,3.3-3.5,3.3H8.8c-2,0-3.5-1.5-3.5-3.3V10.7
		C5.3,8.9,6.8,7.4,8.8,7.4z"/>
	<g>
		<path class="st1" d="M17.4,17h110c1.1,0,2.1,0.9,2.1,2.1v110c0,1.1-0.9,2.1-2.1,2.1h-110c-1.1,0-2.1-0.9-2.1-2.1v-110
			C15.3,17.9,16.2,17,17.4,17z"/>
		<path class="st2" d="M15.3,107.8V129c0,1.1,0.9,2.1,2.1,2.1h110c1.1,0,2.1-0.9,2.1-2.1v-20.6c0-0.6-0.2-1.1-0.6-1.5
			c-1.3-1.1-2.7-2.1-4.2-3c-6.6-3.7-14.6-4.7-21.9-2.6c-2.5,0.7-4.9,1.8-7.5,1.7c-6.1-0.2-9.9-6.4-13.2-11.6
			c-4-6.3-8.8-12.1-14-17.5c-11.3-11.7-23.6-6.6-27.9-5c-6.5,2.5-10.8,8.8-14.3,14.9c-4.1,7.4-7.6,15.2-10.4,23.3
			C15.3,107.3,15.3,107.5,15.3,107.8z"/>
		<ellipse class="st2" cx="91.3" cy="46.8" rx="12.5" ry="12.5"/>
	</g>
</g>
</svg>
