<svg xmlns="http://www.w3.org/2000/svg" width="22.985" height="22.404" viewBox="0 0 22.985 22.404">
  <g id="Group_38578" data-name="Group 38578" transform="translate(-33.501 -473.5)">
    <path id="file-list-search" d="M13.429,22.886H6.552c-1.808,0-2.579-.771-2.579-2.579V6.552c0-1.808.771-2.579,2.579-2.579H12.57V6.552a3.878,3.878,0,0,0,4.3,4.3h2.579v2.579a.86.86,0,1,0,1.719,0V9.991a.856.856,0,0,0-.252-.608L14.037,2.505a.856.856,0,0,0-.608-.252H6.552a3.878,3.878,0,0,0-4.3,4.3V20.307a3.878,3.878,0,0,0,4.3,4.3h6.878a.86.86,0,1,0,0-1.719Zm.86-16.334V5.189l3.942,3.942H16.868c-1.808,0-2.579-.771-2.579-2.579ZM8.558,13.429a.86.86,0,1,1-.86-.86.86.86,0,0,1,.86.86Zm0,4.585a.86.86,0,1,1-.86-.86.86.86,0,0,1,.86.86Zm7.164-3.725H10.564a.86.86,0,0,1,0-1.719h5.158a.86.86,0,1,1,0,1.719Zm-5.158,4.585a.86.86,0,0,1,0-1.719h1.719a.86.86,0,1,1,0,1.719Z" transform="translate(31.273 471.273)" fill="#fff"/>
    <path id="next" d="M1.139,7.472,4.472,4.139a.476.476,0,1,1,.673.673l-2.52,2.52H11a.476.476,0,1,1,0,.952H2.625l2.52,2.52a.476.476,0,1,1-.673.673L1.139,8.145a.476.476,0,0,1,0-.673Z" transform="translate(44.764 482.964)" fill="#fff" stroke="#fff" stroke-width="0.5"/>
  </g>
</svg>
