<svg xmlns="http://www.w3.org/2000/svg" xmlns:xlink="http://www.w3.org/1999/xlink" width="320.716" height="235.811" viewBox="0 0 320.716 235.811">
  <defs>
    <linearGradient id="linear-gradient" x1="0.516" y1="-1.345" x2="0.5" y2="0.5" gradientUnits="objectBoundingBox">
      <stop offset="0" stop-color="#b0b0b0"/>
      <stop offset="0.08" stop-color="#ddd"/>
      <stop offset="1" stop-color="#fff"/>
    </linearGradient>
  </defs>
  <g id="Group_61" data-name="Group 61" transform="translate(-47 -293.902)">
    <g id="Group_60" data-name="Group 60" transform="translate(-1023.487 -517.268)">
      <path id="Path_66" data-name="Path 66" d="M1756.494,908a2.228,2.228,0,0,0-4.4.688c.32,2.075.727,8.578-1.517,11.194a3,3,0,0,1-1.809,1.04l.2-12.384a3.221,3.221,0,1,0-6.44.027l.582,23.5a3.006,3.006,0,0,1-1.885-1.05c-2.244-2.616-1.837-9.119-1.517-11.194a2.228,2.228,0,1,0-4.4-.689c-.16,1.023-1.448,10.127,2.531,14.777a7.544,7.544,0,0,0,5.385,2.647l.253,10.229h4.863l.353-21.372a7.53,7.53,0,0,0,5.271-2.638C1757.942,918.13,1756.654,909.026,1756.494,908Z" transform="translate(-422.047 0)" fill="#d9d9d9"/>
      <path id="Path_67" data-name="Path 67" d="M1201.021,964.333a1.42,1.42,0,1,0-2.807.439c.2,1.323.463,5.468-.967,7.136a1.91,1.91,0,0,1-1.153.663l.13-7.894a2.053,2.053,0,1,0-4.106.017l.371,14.981a1.914,1.914,0,0,1-1.2-.669c-1.43-1.668-1.171-5.813-.967-7.136a1.42,1.42,0,1,0-2.807-.439c-.1.652-.923,6.456,1.613,9.42a4.809,4.809,0,0,0,3.433,1.687l.162,6.521h3.1l.225-13.624a4.8,4.8,0,0,0,3.361-1.682C1201.945,970.788,1201.124,964.985,1201.021,964.333Z" transform="translate(-74.198 -36.407)" fill="#e8e8e8"/>
      <ellipse id="Ellipse_4" data-name="Ellipse 4" cx="160.358" cy="56.77" rx="160.358" ry="56.77" transform="translate(1070.487 933.441)" fill="url(#linear-gradient)"/>
    </g>
    <g id="Group_95" data-name="Group 95" transform="translate(107.424 136.212)">
      <g id="Group_90" data-name="Group 90" transform="translate(20.576 170.18)">
        <g id="Group_89" data-name="Group 89">
          <g id="Group_88" data-name="Group 88">
            <g id="Group_62" data-name="Group 62" transform="translate(0 37.941)">
              <path id="Path_68" data-name="Path 68" d="M151.527,298.168c-5.083-13.833-17.544-21.38-30.5-26.767-6.78-2.821-13.689-5.511-19.908-9.471a44.191,44.191,0,0,1-5.439-4.04,40.37,40.37,0,0,1-10.83-14.683,24.344,24.344,0,0,0-5.52-8.564,27.985,27.985,0,0,0-18.386-7.9c-11.435-.46-22.11,6.232-28.891,15.064-8.3,10.8-11.086,24.842-11.444,38.188-.364,13.552,2,27.6,9.6,39.076,7.354,11.1,18.29,17.249,31.227,19.636,15.427,2.848,31.578,3.1,47.173,1.743,11.978-1.04,25.749-2.407,35.358-10.423C153.179,322.341,155.571,309.173,151.527,298.168Z" transform="translate(-20.576 -226.715)" fill="#b6b6b6"/>
              <path id="Path_69" data-name="Path 69" d="M124.625,337.714c-13.943,2.813-28.606,3.294-42.777,2.536-13.311-.711-28.24-1.812-39.437-9.811-10.486-7.491-16.642-19.569-19.047-32a83.618,83.618,0,0,1,2.149-40.373c4.2-13.108,13.683-25.238,27.47-28.882a28.114,28.114,0,0,1,18.308,1.479c5.641,2.476,10.672,7.058,12.8,12.941a33.894,33.894,0,0,0,4.9,8.666,45.035,45.035,0,0,0,6.591,7.33c4.54,3.893,9.941,6.64,15.368,9.069,5.641,2.523,11.431,4.707,17,7.386a52.823,52.823,0,0,1,12.314,7.764c9.332,8.275,14.927,20.945,11.4,33.366C148.11,329.669,136.465,335.325,124.625,337.714Z" transform="translate(-20.921 -227.14)" fill="#efefef"/>
              <path id="Path_70" data-name="Path 70" d="M145.348,287.186a52.825,52.825,0,0,0-12.314-7.764c-5.571-2.679-11.362-4.863-17-7.386-5.427-2.428-10.828-5.176-15.368-9.069a45.037,45.037,0,0,1-6.591-7.33,33.893,33.893,0,0,1-4.9-8.666,18.755,18.755,0,0,0-.735-1.731,21.8,21.8,0,0,0-7.612-3.6A11.237,11.237,0,0,0,69.5,243.252c-4.5,3.35-6.377,8.888-7.484,14.166-2.506,11.945-2.092,24.429,4.333,35.106a40.446,40.446,0,0,0,27,18.8c6.578,1.252,13.073.611,19.553-.867,4.312-.984,8.582-2.2,12.911-3.011a.446.446,0,0,0,.1.042,14.323,14.323,0,0,1,7.992,23.835c-7.047,7.755-18.72,8.024-28.431,8.278a193.507,193.507,0,0,1-33.433-2.365.5.5,0,0,0-.43-.268q-1.213-.058-2.417-.161c-3.778-.593-7.55-1.254-11.319-1.948a66.909,66.909,0,0,1-17.223-7.215A41.387,41.387,0,0,0,47.5,333.81c11.2,8,26.127,9.1,39.437,9.811,14.172.758,28.834.277,42.777-2.536,11.84-2.389,23.485-8.045,27.034-20.534C160.274,308.13,154.68,295.46,145.348,287.186Z" transform="translate(-26.008 -230.512)" fill="#d5d5d5"/>
            </g>
            <g id="Group_84" data-name="Group 84" transform="translate(39.007)">
              <g id="Group_63" data-name="Group 63" transform="translate(26.075 17.957)">
                <path id="Path_71" data-name="Path 71" d="M164,212.392a3.708,3.708,0,0,0-.366-1.615,2.705,2.705,0,0,0-2.891-1.515,3.8,3.8,0,0,0-.754-1.453,2.186,2.186,0,0,0-2.384-.684c1.114-3.06,1.937-6.942-.623-7.713-1.485-.447-2.51.948-2.991,2.131-1.121,2.756-1.849,5.745-2.757,8.579a.468.468,0,0,0,.015.333,5.384,5.384,0,0,0-1.995,2.185,7.09,7.09,0,0,0,.314,6.342c-3.045,6.718-7.276,13.214-14.041,16.646-6.838,3.469-15.709,2.707-20.386-3.884a.549.549,0,0,0-.232-.189.542.542,0,0,0-.927-.031c-3.72,5.974-5.8,13.374-2.7,20.079,3.061,6.616,10.264,8.834,17.092,8.575A30.194,30.194,0,0,0,157,233.278l1.443-6.67a4.984,4.984,0,0,1,1.788-3.42,15.662,15.662,0,0,0,2.385-2.26c.007-.01.012-.019.018-.029a4.431,4.431,0,0,0,1.545-.977C166.132,218.024,167.518,213.334,164,212.392Z" transform="translate(-109.775 -199.326)" fill="#1a1818"/>
                <path id="Path_72" data-name="Path 72" d="M178.507,217.287a7.53,7.53,0,0,0,.379-2.93c2.314-.576,2.055,2.939,1.577,4.288a4.252,4.252,0,0,1-1.606,2.3,1.78,1.78,0,0,1-2.658-.578A5.49,5.49,0,0,0,178.507,217.287Z" transform="translate(-127.734 -203.373)" fill="#e7e7e7"/>
                <path id="Path_73" data-name="Path 73" d="M176.959,213.119a5.887,5.887,0,0,1-.1,2.487,5.8,5.8,0,0,1-.852,1.9l-.493.594c-.641.738-1.372.695-2.191-.111a1.9,1.9,0,0,0,1.358-1.774,2.758,2.758,0,0,0-1.371-2.488l.007-.008c.2-.409.517-1.067.854-1.862a.412.412,0,0,0,.484-.158C176,209.97,176.833,212.513,176.959,213.119Z" transform="translate(-126.952 -202.511)" fill="#e7e7e7"/>
                <path id="Path_74" data-name="Path 74" d="M169.45,206.623c.387-1.209.862-3.008,1.361-4.155.476-1.1,2.046-1.789,2.45.316a2.131,2.131,0,0,1-.048.57,10.425,10.425,0,0,1-.486,2.671,22.044,22.044,0,0,1-1.715,4.541c-.01.022-.009.042-.017.063a4.372,4.372,0,0,0-.954-.25,4.47,4.47,0,0,0-1.837.133Z" transform="translate(-125.573 -199.892)" fill="#e7e7e7"/>
                <path id="Path_75" data-name="Path 75" d="M113.16,264.514c-3.577-6.294-1.718-13.613,1.76-19.477a16.074,16.074,0,0,0,15.127,5.92l.786,20.185a.543.543,0,0,0,.039.163c-.123.014-.245.033-.369.045C124.056,271.993,116.616,270.6,113.16,264.514Z" transform="translate(-110.168 -211.685)" fill="#d5d5d5"/>
                <path id="Path_76" data-name="Path 76" d="M168.012,226.079c-.506.406-1.562.738-1.952,1.21-1.654,2-1.606,6.9-2.1,9.349-1.418,7.042-3.616,13.32-8.82,18.461a28.82,28.82,0,0,1-15.88,7.981c0-.012.006-.02.005-.031q-.4-10.183-.793-20.365a18.543,18.543,0,0,0,2.872-.789c8.321-3.047,13.517-10.564,17.007-18.338a.537.537,0,0,0-.047-.531.525.525,0,0,0-.047-.295c-1.059-2.161-1.212-4.907.694-6.668a3.619,3.619,0,0,1,3.367-.842c.831.231,3.267,1.734.925,2.979-.579.309-1.806-.151-2.375-.332-.656-.209-.936.82-.284,1.028a7.4,7.4,0,0,0,2.085.352,2.128,2.128,0,0,0,2.294,1.638,2.612,2.612,0,0,0,1.884,1.647,2.254,2.254,0,0,0,1.345,2.63,2.728,2.728,0,0,0,.639.174A9.143,9.143,0,0,1,168.012,226.079Z" transform="translate(-117.534 -203.59)" fill="#e7e7e7"/>
                <path id="Path_77" data-name="Path 77" d="M183.047,223.116a5.248,5.248,0,0,1-1.564,1.755c-.9.576-3.547.607-2.7-1.327v0a4.426,4.426,0,0,0,3.143-2.84,8.981,8.981,0,0,0,.591-1.947C184.225,219.455,183.872,221.725,183.047,223.116Z" transform="translate(-128.388 -204.579)" fill="#e7e7e7"/>
              </g>
              <g id="Group_71" data-name="Group 71" transform="translate(0 43.709)">
                <g id="Group_64" data-name="Group 64">
                  <path id="Path_78" data-name="Path 78" d="M119.674,291.648a64.2,64.2,0,0,0-3.921-8.542,37.236,37.236,0,0,1-3.48-13.57c-.64-7.8-.087-16.062-3.564-23.312a18.206,18.206,0,0,0-5.495-6.716,27.141,27.141,0,0,0-11.953-4.767,10.329,10.329,0,0,0-3.927.158,12.757,12.757,0,0,0-6.753,4.179c-4.094,4.813-5.246,11.693-5.989,17.766-1.715,14.018.463,29.921,7.678,42.259a18.851,18.851,0,0,0,14.137,9.753c5.949.854,13.287.965,18.555-2.346S121.488,297.4,119.674,291.648Z" transform="translate(-74.037 -234.621)" fill="#1a1818"/>
                  <path id="Path_79" data-name="Path 79" d="M118.886,301.613c-3.029,6.1-10.689,6.974-16.714,6.883-6.243-.094-12.214-1.32-16.361-6.356-3.8-4.617-5.935-10.772-7.546-16.447a72.342,72.342,0,0,1-2.732-18.581,62.748,62.748,0,0,1,2.608-20.052c1.636-5.076,6.154-11.723,12.25-11.191a21.471,21.471,0,0,1,5.484,1.369,43.14,43.14,0,0,1,4.946,1.97c9.743,5.025,10.07,17.23,10.548,26.749.281,5.595.8,11.157,3.08,16.341C117.026,288.147,122.164,295.01,118.886,301.613Z" transform="translate(-74.439 -234.95)" fill="#d5d5d5"/>
                </g>
                <g id="Group_67" data-name="Group 67" transform="translate(37.362 38.643)">
                  <g id="Group_65" data-name="Group 65" transform="translate(48.311 44.395)">
                    <path id="Path_80" data-name="Path 80" d="M215.909,349.989a23.381,23.381,0,0,0-21.628,2.581.549.549,0,0,0-.124.8c-1.758,2.473-3.608,5.569-2.206,8.637,1.133,2.482,3.782,2.917,6.247,2.853a92.456,92.456,0,0,0,12.957-1.486c3.549-.6,8.26-.946,11.424-2.806C228.807,356.905,218.966,351.187,215.909,349.989Z" transform="translate(-191.457 -348.429)" fill="#1a1818"/>
                    <path id="Path_81" data-name="Path 81" d="M223.167,359.507c-.428.711-1.966,1.063-2.629,1.259a94.45,94.45,0,0,1-17.167,3.031c-2.359.239-5.258.834-7.592.163-5.292-1.52-2.007-7.32-.06-10.017a.433.433,0,0,0,.066-.433,22,22,0,0,1,23.187-.67,12.273,12.273,0,0,1,3.288,2.36C222.874,355.946,223.68,358.654,223.167,359.507Z" transform="translate(-191.85 -348.816)" fill="#fff"/>
                  </g>
                  <g id="Group_66" data-name="Group 66">
                    <path id="Path_82" data-name="Path 82" d="M174.151,291.149c-15.785-7.893-33.5-1.1-48.554,5.086a.567.567,0,0,0,.031,1.063c-1.111,4.393,1.705,8.559,5.7,10.375,6.075,2.759,12.829.6,19.19,1.189,14.765,1.373,22.559,15.813,26.984,28.29a.533.533,0,0,0,.332.937,29.287,29.287,0,0,0,15.1-4.3c.011-.007.015-.016.026-.023a.432.432,0,0,0,.125-.116.349.349,0,0,0,.026-.034.466.466,0,0,0,.05-.123.452.452,0,0,0,.018-.1c0-.02.01-.034.01-.055C192.91,317.623,189.734,298.941,174.151,291.149Z" transform="translate(-125.244 -287.583)" fill="#1a1818"/>
                    <path id="Path_83" data-name="Path 83" d="M179.017,337.377c-3.742-10.609-9.157-21.618-19.736-26.819-5.4-2.654-10.756-2.519-16.625-2.212-3.264.171-6.685.22-9.784-.975-3.949-1.522-7.007-5.46-5.674-9.8a.488.488,0,0,0,0-.278c14.322-5.867,31-12.2,46.072-5.21,15.742,7.3,18.971,25.75,19.283,41.338A28.045,28.045,0,0,1,179.017,337.377Z" transform="translate(-125.687 -287.968)" fill="#d5d5d5"/>
                  </g>
                </g>
                <g id="Group_70" data-name="Group 70" transform="translate(5.167 42.095)">
                  <g id="Group_68" data-name="Group 68" transform="translate(69.875 46.953)">
                    <path id="Path_84" data-name="Path 84" d="M201.339,358.226a23.382,23.382,0,0,0-21.628,2.581.55.55,0,0,0-.125.8c-1.758,2.473-3.607,5.569-2.206,8.637,1.133,2.482,3.782,2.917,6.246,2.853a92.54,92.54,0,0,0,12.957-1.486c3.55-.6,8.261-.946,11.425-2.806C214.237,365.142,204.4,359.424,201.339,358.226Z" transform="translate(-176.887 -356.666)" fill="#1a1818"/>
                    <path id="Path_85" data-name="Path 85" d="M208.6,367.744c-.428.711-1.966,1.063-2.629,1.259a94.533,94.533,0,0,1-17.167,3.032c-2.359.238-5.258.833-7.592.162-5.291-1.521-2.007-7.32-.059-10.017a.433.433,0,0,0,.066-.433,22,22,0,0,1,23.186-.67,12.278,12.278,0,0,1,3.288,2.36C208.3,364.183,209.11,366.891,208.6,367.744Z" transform="translate(-177.28 -357.053)" fill="#fff"/>
                  </g>
                  <g id="Group_69" data-name="Group 69">
                    <path id="Path_86" data-name="Path 86" d="M172.9,339.439c.239-2.008-.714-4.5-.943-6.4-.363-3-.748-5.992-1.28-8.964a51.129,51.129,0,0,0-5.725-16.84,29.837,29.837,0,0,0-10.186-10.655c-11.718-7.284-25.2-4.061-37.312.978-.45-.606-1.685-2.986-2.539-3a1.106,1.106,0,0,0-.441.115c-5.389,2.277-10.507,5.115-15.981,7.249Q93.8,303.75,89,305.275q-2.4.762-4.825,1.448a23.768,23.768,0,0,0-2.429.665c-1.046.424-.516,1.779-.267,2.562,1.987,6.254,5.874,11.5,11.851,14.421,7.185,3.507,15.526,3.431,23.174,1.691a85.561,85.561,0,0,0,12.863-4.24c4.151-1.669,9.376-4.148,13.594-1.361,3.772,2.492,5.3,8.368,6.5,12.424a61.055,61.055,0,0,1,1.837,8.41q.328,2.245.5,4.508c.11,1.436-.13,2.515,1.65,2.636a20.634,20.634,0,0,0,6.594-1.055,29.342,29.342,0,0,0,6.81-2.8,29.864,29.864,0,0,0,3.169-2.074c.827-.618,2.409-1.267,2.734-2.335A4.237,4.237,0,0,0,172.9,339.439Z" transform="translate(-81.119 -292.314)" fill="#1a1818"/>
                    <path id="Path_87" data-name="Path 87" d="M147.264,323.672c-4.435-7.584-11.945-4.772-18.614-2.126-8.932,3.542-18.735,6.428-28.381,4.314-8.606-1.885-16.156-8.111-17.419-17.157a158.073,158.073,0,0,0,32.37-12.62l1.7,2.287c-3.137,1.339-6.176,2.783-9.058,4.182-.617.3-.077,1.219.538.921,13.881-6.739,31.551-14.753,46.3-5.585,14.093,8.761,16.069,26.992,17.378,41.958a.534.534,0,0,0,.093.256,28.334,28.334,0,0,1-18.746,7.62C153,339.653,151.38,330.71,147.264,323.672Z" transform="translate(-81.587 -292.705)" fill="#d5d5d5"/>
                  </g>
                </g>
              </g>
              <g id="Group_76" data-name="Group 76" transform="translate(0.893 48.537)">
                <g id="Group_74" data-name="Group 74" transform="translate(42.615 2.072)">
                  <g id="Group_72" data-name="Group 72" transform="translate(0 31.404)">
                    <path id="Path_88" data-name="Path 88" d="M173.595,292.255a2.968,2.968,0,0,0,1.561-.231,2.9,2.9,0,0,0,.919-1.753c.146-.734.184-1.9-.725-2.024a52.853,52.853,0,0,0-5.405-.176c-3.793-.117-7.589-.188-11.384-.271q-2.162-.047-4.324-.1l-10.113-.27-5.108-.136-2.5-.066c-.538-.015-1.7-.263-2.176.054a1.743,1.743,0,0,0-.521,2.146,3.566,3.566,0,0,0,1.292,1.912c.86.542,1.97.2,2.92.223l3.9.074,7.8.147,15.61.294,4.37.082c.968.018,1.936.041,2.9.05C172.911,292.208,173.25,292.239,173.595,292.255Z" transform="translate(-133.668 -287.118)" fill="#1a1818"/>
                    <path id="Path_89" data-name="Path 89" d="M153.945,291.181c-3.215-.061-6.431-.131-9.646-.193q-2.437-.047-4.875-.088l-2.385-.035a1.612,1.612,0,0,1-1.581-.781,2.6,2.6,0,0,1-.282-1.062c.038-.765,3.1-.3,3.623-.286l5.207.139,10.415.278q5.335.142,10.67.294,2.667.073,5.335.142l2.724.067c.51.012,2.486-.387,2.348.509-.067.434-.12,1.084-.544,1.336a3.146,3.146,0,0,1-1.825.081c-.8-.074-1.6-.065-2.4-.083q-2.836-.064-5.671-.117Q159.5,291.277,153.945,291.181Z" transform="translate(-134.075 -287.514)" fill="#fff"/>
                  </g>
                  <g id="Group_73" data-name="Group 73" transform="translate(21.225)">
                    <path id="Path_90" data-name="Path 90" d="M193.535,247.289a1.823,1.823,0,0,0-.589-.13c-7.225-.73-14.42-1.728-21.613-2.724-.947-.131-2.57-.7-3.439-.055-.665.5-.587,1.523-.713,2.254-.208,1.2-.395,2.4-.592,3.6q-.593,3.6-1.186,7.2-1.169,7.1-2.32,14.2c-.352,2.181-.89,4.7,1.316,6.084,2.415,1.51,6.548.886,9.217.977,3.443.117,7.441.842,10.834.1,2.619-.576,3.918-2.506,4.559-4.988,1.148-4.444,2.031-8.951,2.838-13.467.4-2.228.778-4.458,1.162-6.687q.289-1.671.584-3.342c.133-.748.936-2.476-.008-2.991Z" transform="translate(-162.758 -244.077)" fill="#1a1818"/>
                    <path id="Path_91" data-name="Path 91" d="M186.162,277.414c-2.611,1.7-7.139.747-10.116.646-3.026-.1-6.585.277-9.53-.469-3.984-1.011-1.447-8.591-.972-11.49.543-3.312,1.129-6.626,1.691-9.929.452-2.656.641-5.374.941-8.051.116-1.036.343-2.211,1.471-2.589a4.039,4.039,0,0,1,2.207.131,92.766,92.766,0,0,0,9.665,1.51c2.554.338,5.128.5,7.682.837,1.226.163,3.2-.349,3.958,1.016.715,1.287-.295,3.132-.584,4.414-1.123,4.966-2.093,9.949-3.082,14.944C188.937,271.267,188.837,275.674,186.162,277.414Z" transform="translate(-163.178 -244.44)" fill="#fff"/>
                    <path id="Path_92" data-name="Path 92" d="M194.028,249.045c-.759-1.365-2.732-.852-3.958-1.016-2.554-.34-5.128-.5-7.682-.837a92.757,92.757,0,0,1-9.665-1.51c-.289-.069-.584-.141-.881-.188a181.678,181.678,0,0,0-4.273,27.451c-.177,2.353.146,3.927,1.55,4.969,2.543.306,5.342.082,7.8.165,2.977.1,7.5,1.052,10.116-.646,2.675-1.739,2.776-6.147,3.331-9.031.989-5,1.959-9.978,3.082-14.944C193.733,252.178,194.743,250.332,194.028,249.045Z" transform="translate(-164.047 -244.46)" fill="#d5d5d5"/>
                  </g>
                </g>
                <g id="Group_75" data-name="Group 75">
                  <path id="Path_93" data-name="Path 93" d="M135.053,263.877c-.652-3.557-5.364-5.04-8.5-4.951a15.978,15.978,0,0,0-5.92,1.413c-3.323,1.48-5.76,4.236-8.134,6.893-2.195,2.457-4.7,4.831-8.211,4.786-5.264-.067-5.93-5.547-6.912-9.561-1.032-4.224-1.861-8.57-3.185-12.714a13.446,13.446,0,0,0-4.4-6.952c-4.863-3.653-10.42-.347-12.612,4.6-2.852,6.437-2.313,14.239.161,20.7,2.59,10.156,6.767,23.514,18.867,25.4,12.393,1.931,20.627-9.758,26.373-18.821.011-.018.011-.035.02-.053a2.925,2.925,0,0,0,.268-.153.506.506,0,0,0,.348.4,2.884,2.884,0,0,0,3.714-2.36c.007-.039.008-.078.014-.118a.461.461,0,0,0,.071,0c1.9-.266,2.354-1.622,2.117-3.2a2.361,2.361,0,0,0,1.461.986,1.571,1.571,0,0,0,1.82-1.294c.248-1.131-.461-2.422-1-3.374-.075-.132-.165-.254-.244-.382a3.524,3.524,0,0,0,2.528.9A1.766,1.766,0,0,0,135.053,263.877Z" transform="translate(-75.261 -241.238)" fill="#1a1818"/>
                  <path id="Path_94" data-name="Path 94" d="M77.376,263.469a27.672,27.672,0,0,1-.584-6.533c.129-4.071.984-9.09,4.013-12.083,3.742-3.7,8.8-2.1,11.287,2.1,2.016,3.412,2.6,7.745,3.534,11.545.654,2.678,1.1,5.607,1.922,8.321a84.364,84.364,0,0,1-16.57,9.093c-.01,0-.018.01-.027.015A88.347,88.347,0,0,1,77.376,263.469Z" transform="translate(-75.671 -241.656)" fill="#d5d5d5"/>
                  <path id="Path_95" data-name="Path 95" d="M136.089,271.472c-.336.684-1.189.358-1.658.1a8.165,8.165,0,0,0-2.12-1.12.546.546,0,0,0-.251,0,12.713,12.713,0,0,0-1.533-1.437c-.533-.421-1.292.328-.754.754a10.484,10.484,0,0,1,3.512,4.689c.163.451.484,1.25-.078,1.4-.058.015-.485.247-1.123-.32A8.026,8.026,0,0,1,131,274.282c-.335-.452-.631-.931-.941-1.4-.1-.158-.207-.317-.307-.477a1.728,1.728,0,0,0-.22-.371,6.894,6.894,0,0,0-1.026-1.278c-.5-.474-1.252.279-.754.754,1.087,1.035,4.262,6.081,1.293,6.75-.238-1.684-1.569-3.061-2.862-4.12-.527-.431-1.286.319-.754.754a7.208,7.208,0,0,1,2.293,2.654c.625,1.5-.053,3.877-2.077,3.242a2.941,2.941,0,0,0,.466-.851c.225-.649-.8-.929-1.028-.283-.265.763-1.082.935-1.5,1.6-5.32,8.51-13.967,20.964-25.8,18.006-6.253-1.3-10.4-6.041-13-11.616-.633-1.355-1.229-2.763-1.786-4.206A85.581,85.581,0,0,0,99.576,274.4c.178.506.368,1.005.583,1.488a6.547,6.547,0,0,0,4.682,3.975c6.408,1.375,9.959-4.9,13.926-8.632,4.267-4.012,11.577-6.449,16.295-1.772C135.476,269.864,136.412,270.815,136.089,271.472Z" transform="translate(-77.353 -248.176)" fill="#e7e7e7"/>
                </g>
              </g>
              <g id="Group_83" data-name="Group 83" transform="translate(12.003)">
                <g id="Group_82" data-name="Group 82">
                  <g id="Group_77" data-name="Group 77" transform="translate(23.884 34.548)">
                    <path id="Path_96" data-name="Path 96" d="M131.291,223.531c-1.4-1.763-4.866-1.917-6.493-.566a4.166,4.166,0,0,0-.861,5.569,4.317,4.317,0,0,0,5.723,1.124,4.782,4.782,0,0,0,2.023-5.467A2.784,2.784,0,0,0,131.291,223.531Z" transform="translate(-123.224 -222.064)" fill="#1a1818"/>
                    <path id="Path_97" data-name="Path 97" d="M130.206,228.571a3.306,3.306,0,0,1-4.683.093,3.037,3.037,0,0,1,.136-4.314,3.283,3.283,0,0,1,2.541-.895C130.96,223.639,132.349,226.449,130.206,228.571Z" transform="translate(-123.62 -222.438)" fill="#9b9b9b"/>
                  </g>
                  <g id="Group_79" data-name="Group 79" transform="translate(2.822 8.358)">
                    <path id="Path_98" data-name="Path 98" d="M126.1,198.047a13.958,13.958,0,0,0-11.911-11.7c-6.071-.935-11.9,2-15.549,6.791-5.028,6.594-5.033,15.351-2.206,22.854-.381,3.208-3,6.054-1.739,9.378.94,2.475,3.342,3.869,5.654,4.842,1.968.827,5.234,2.345,6.883.112a6.282,6.282,0,0,0,.75-3.078c.175-1.529.341-3.06.509-4.59,4.756,1.578,9.9-1.1,12.8-5.17C125.016,212.24,127.106,204.425,126.1,198.047Z" transform="translate(-94.357 -186.17)" fill="#1a1818"/>
                    <path id="Path_99" data-name="Path 99" d="M124.322,209.692c-1.445,4.743-4.5,10.385-9.344,12.347a7.711,7.711,0,0,1-3.056.582,8.784,8.784,0,0,1-2.075-.376c-.761-.2-1.469-.617-1.768.37-.586,1.932-.088,4.02-.836,5.961-1.494,3.874-6.026,1.4-8.349-.086a5.637,5.637,0,0,1-2.558-7.058c.531-1.523,1.131-2.99,1.564-4.547a1.653,1.653,0,0,0,.087-.53,11.242,11.242,0,0,0-.742-2.146q-.361-1.194-.622-2.415a26.628,26.628,0,0,1-.586-4.924,20.916,20.916,0,0,1,1.939-9.528,18.293,18.293,0,0,1,2.322-3.652c4.614-5.645,12.514-7.941,19.059-4.19C126.63,193.669,126.479,202.607,124.322,209.692Z" transform="translate(-94.786 -186.574)" fill="#e7e7e7"/>
                    <g id="Group_78" data-name="Group 78" transform="translate(1.246 1.091)">
                      <path id="Path_100" data-name="Path 100" d="M119.391,189.5c-6.546-3.752-14.445-1.456-19.059,4.19a18.293,18.293,0,0,0-2.322,3.652,20.916,20.916,0,0,0-1.939,9.528c.009.368.028.737.053,1.1a24.918,24.918,0,0,0,4.413,1.221.509.509,0,0,0,.779.416,39.4,39.4,0,0,0,12.038-12.124c4.056,2.023,8.081,4.222,12.21,6.106C126.037,198.071,124.672,192.528,119.391,189.5Z" transform="translate(-96.064 -187.665)" fill="#c4c4c4"/>
                      <path id="Path_101" data-name="Path 101" d="M111.523,233.876l-3.092-1.4c-.853-.387-2.492-1.545-3.5-1.134-1.744.708-.5,4.073.08,5.172a7.372,7.372,0,0,0,4.46,3.725c.681-1.906.224-3.945.8-5.836C110.5,233.641,110.971,233.712,111.523,233.876Z" transform="translate(-98.22 -199.45)" fill="#c4c4c4"/>
                    </g>
                  </g>
                  <g id="Group_80" data-name="Group 80" transform="translate(1.844)">
                    <path id="Path_102" data-name="Path 102" d="M128.722,192.3l1.916-2.481c.757-.98,2.279-2.317,2.185-3.69-.139-2.024-2.713-1.746-4.545-1.251,1.075-1.349,2.525-3.33,1.025-4.332-.828-.554-2.082-.306-2.992-.192a16.768,16.768,0,0,0-2.655.566c1.05-1.711,2.408-4.254.572-4.9-1.081-.383-2.629.471-3.578.852a28.339,28.339,0,0,0-3.268,1.574c.814-1.709,1.528-3.912-.851-3.72-1.54.124-3.331,1.156-4.705,1.826a33.335,33.335,0,0,0-4.785,2.887q-.19-1.447-.382-2.894c-.052-.4-.579-.779-.91-.377-4.15,5.054-9.352,9.647-11.675,15.929a17.311,17.311,0,0,0,2.549,16.5.583.583,0,0,0,.8.117.53.53,0,0,0,.193-.085,34.038,34.038,0,0,0,13.041-17.468,41.089,41.089,0,0,1,14.687,6.6.567.567,0,0,0,.112.061.463.463,0,0,0,.6.056l4.3-2.7c.7-.441,2.318-1.028,2.44-2.01C133,191.538,130.411,191.938,128.722,192.3Z" transform="translate(-93.015 -174.715)" fill="#1a1818"/>
                    <path id="Path_103" data-name="Path 103" d="M130.65,194.429l-4.448,2.8A41.785,41.785,0,0,0,111.04,190.5a.539.539,0,0,0-.259.007.511.511,0,0,0-.591.358,32.88,32.88,0,0,1-12.561,17.183,16.39,16.39,0,0,1-1.514-16.663c2.366-5.037,6.48-8.943,10.051-13.137q.162,1.237.325,2.473c-.112.43.309.944.744.617a33.96,33.96,0,0,1,5.534-3.426,12.1,12.1,0,0,1,3.21-1.349l.685-.235a1.569,1.569,0,0,1,.208,1.913,11.172,11.172,0,0,1-.842,1.745c-.269.556.452,1.043.815.677a.533.533,0,0,0,.066-.025,27.96,27.96,0,0,1,5.494-2.7c.236-.084.842-.41,1.083-.36,1.364.285.6,1.264.323,1.778l-1.443,2.721a.578.578,0,0,0-.045.084l0,.006c-.306.577.509,1.082.865.6a15.88,15.88,0,0,1,4.8-1.018c.549-.022.572-.111.884.446.353.633.1.717-.268,1.256-.523.767-1.056,1.527-1.585,2.291a.444.444,0,0,0-.063.43c-.093.374.167.821.611.64a6.736,6.736,0,0,1,3.309-.736c2.225.43.264,2.334-.335,3.111l-3.929,5.088c-.42.542.506,1.074.921.538l.59-.764c.007,0,.013,0,.021,0,.917-.144,1.834-.292,2.751-.43C132.812,193.329,131.421,193.944,130.65,194.429Z" transform="translate(-93.421 -175.15)"/>
                  </g>
                  <g id="Group_81" data-name="Group 81" transform="translate(0 29.086)">
                    <path id="Path_104" data-name="Path 104" d="M98.556,216.051c-1.38-1.782-4.866-1.916-6.493-.566a4.166,4.166,0,0,0-.861,5.569,4.032,4.032,0,0,0,5.416,1.436c1.7-1.013,2.57-3.74,2.33-5.779A1.9,1.9,0,0,0,98.556,216.051Z" transform="translate(-90.489 -214.579)" fill="#1a1818"/>
                    <path id="Path_105" data-name="Path 105" d="M99.6,221.667c-1.286,1.274-5.506.822-6.815-.5a3.038,3.038,0,0,1,.136-4.315,2.84,2.84,0,0,1,2.54-.894C99.039,216.793,101.747,219.544,99.6,221.667Z" transform="translate(-90.885 -214.939)" fill="#d9d9d9"/>
                  </g>
                </g>
              </g>
            </g>
            <g id="Group_87" data-name="Group 87" transform="translate(38.762 104.124)">
              <g id="Group_85" data-name="Group 85">
                <path id="Path_106" data-name="Path 106" d="M108.071,340a42.912,42.912,0,0,0-31.908-22.57.562.562,0,0,0-.546.241.552.552,0,0,0-.723.326c-3.108,8.609,1.414,17.453,8.858,22.077A30.345,30.345,0,0,0,97.4,344.255c3.557.282,9.112.778,10.383-3.505A.536.536,0,0,0,108.071,340Z" transform="translate(-73.755 -317.424)" fill="#efefef"/>
                <path id="Path_107" data-name="Path 107" d="M108.545,350.187c-3.52-.768-27.475-4.778-30.407-6.89-6.267-4.516-4.77-30.719-2.328-24.785.006,0,.009,0,.015.006a44.252,44.252,0,0,1,31.905,22.292C107.691,340.862,112.026,350.947,108.545,350.187Z" transform="translate(-73.702 -317.483)" fill="#efefef"/>
              </g>
              <g id="Group_86" data-name="Group 86" transform="translate(21.201 8.255)">
                <path id="Path_108" data-name="Path 108" d="M142.483,331.74a42.912,42.912,0,0,0-38.9,3.767.56.56,0,0,0-.256.539.553.553,0,0,0-.335.719c3.273,8.548,12.477,12.288,21.132,10.922a30.334,30.334,0,0,0,13.065-5.754c2.876-2.112,7.4-5.366,5.569-9.438A.535.535,0,0,0,142.483,331.74Z" transform="translate(-102.811 -328.737)" fill="#efefef"/>
                <path id="Path_109" data-name="Path 109" d="M149.448,339.441c-3.166,1.718-23.919,14.338-27.518,14.655-7.695.676-23.684-20.135-17.96-17.24.005,0,.01,0,.015-.006a44.254,44.254,0,0,1,38.718-3.976C142.708,332.94,152.58,337.742,149.448,339.441Z" transform="translate(-102.759 -329.117)" fill="#efefef"/>
              </g>
            </g>
          </g>
        </g>
      </g>
      <g id="Group_91" data-name="Group 91" transform="translate(88.836 199.284)">
        <path id="Path_110" data-name="Path 110" d="M117.069,215.37a2.654,2.654,0,0,1-1.949-.621c-.56-.477-1.361.344-.8.823a3.837,3.837,0,0,0,2.78.944C117.835,216.466,117.808,215.319,117.069,215.37Z" transform="translate(-114.13 -214.604)" fill="#1a1818"/>
        <path id="Path_111" data-name="Path 111" d="M129.916,219.32a1.5,1.5,0,0,1-1.509-.514c-.49-.554-1.284.274-.8.823a2.653,2.653,0,0,0,2.628.792C130.956,220.249,130.632,219.149,129.916,219.32Z" transform="translate(-117.733 -215.691)" fill="#1a1818"/>
        <path id="Path_112" data-name="Path 112" d="M124.6,216.677a.574.574,0,0,0-1.146.032,4.636,4.636,0,0,1-1.216,3.332c-.5.546.327,1.346.823.8A5.836,5.836,0,0,0,124.6,216.677Z" transform="translate(-116.281 -215.019)" fill="#1a1818"/>
      </g>
      <path id="Path_113" data-name="Path 113" d="M115.2,225.667l5.453,2.308S119.314,225.687,115.2,225.667Z" transform="translate(-25.584 -18.311)" fill="#1a1818"/>
      <g id="Group_94" data-name="Group 94" transform="translate(124.349 157.941)">
        <rect id="Rectangle_42" data-name="Rectangle 42" width="51.517" height="20.597" rx="3.085" fill="#e7e7e7" stroke="#242424" stroke-width="0.5"/>
        <circle id="Ellipse_5" data-name="Ellipse 5" cx="6.357" cy="6.357" r="6.357" transform="translate(4.255 3.941)" fill="#d5d5d5" stroke="#242424" stroke-width="0.5"/>
        <g id="Group_92" data-name="Group 92" transform="translate(22.499 4.11)">
          <path id="Path_114" data-name="Path 114" d="M195.537,163.574l.586,1.188,1.311.19-.948.924.224,1.305-1.172-.616-1.172.616.224-1.305-.948-.924,1.311-.19Z" transform="translate(-193.64 -163.574)" fill="#d5d5d5" stroke="#262525" stroke-width="0.5"/>
          <path id="Path_115" data-name="Path 115" d="M202.612,163.574l.586,1.188,1.311.19-.948.924.224,1.305-1.172-.616-1.172.616.224-1.305-.948-.924,1.311-.19Z" transform="translate(-195.553 -163.574)" fill="#d5d5d5" stroke="#262525" stroke-width="0.5"/>
          <path id="Path_116" data-name="Path 116" d="M209.687,163.574l.586,1.188,1.311.19-.948.924.224,1.305-1.172-.616-1.172.616.224-1.305-.948-.924,1.311-.19Z" transform="translate(-197.466 -163.574)" fill="#d5d5d5" stroke="#262525" stroke-width="0.5"/>
          <path id="Path_117" data-name="Path 117" d="M216.763,163.574l.586,1.188,1.311.19-.948.924.224,1.305-1.172-.616-1.172.616.224-1.305-.948-.924,1.311-.19Z" transform="translate(-199.379 -163.574)" fill="#d5d5d5" stroke="#262525" stroke-width="0.5"/>
          <path id="Path_118" data-name="Path 118" d="M223.838,163.574l.586,1.188,1.311.19-.948.924.224,1.305-1.172-.616-1.172.616.224-1.305-.948-.924,1.311-.19Z" transform="translate(-201.292 -163.574)" fill="#d5d5d5" stroke="#262525" stroke-width="0.5"/>
        </g>
        <g id="Group_93" data-name="Group 93" transform="translate(22.499 10.041)">
          <rect id="Rectangle_43" data-name="Rectangle 43" width="24.443" height="0.514" fill="#1a1818"/>
          <rect id="Rectangle_44" data-name="Rectangle 44" width="18.186" height="0.514" transform="translate(0 1.564)" fill="#1a1818"/>
          <rect id="Rectangle_45" data-name="Rectangle 45" width="21.773" height="0.514" transform="translate(0 3.128)" fill="#1a1818"/>
          <rect id="Rectangle_46" data-name="Rectangle 46" width="9.343" height="0.514" transform="translate(0 4.692)" fill="#1a1818"/>
        </g>
      </g>
    </g>
  </g>
</svg>
