<svg xmlns="http://www.w3.org/2000/svg" xmlns:xlink="http://www.w3.org/1999/xlink" width="282" height="138.986" viewBox="0 0 282 138.986">
  <defs>
    <clipPath id="clip-path">
      <rect id="Rectangle_1424" data-name="Rectangle 1424" width="231.226" height="90.048" fill="none"/>
    </clipPath>
    <clipPath id="clip-path-2">
      <path id="Path_22655" data-name="Path 22655" d="M284.715,64.844V69.8a.546.546,0,0,0,.546.546h3.34a.546.546,0,0,0,.546-.546V61.5a.546.546,0,0,0-.546-.546,3.887,3.887,0,0,0-3.887,3.887" transform="translate(-284.715 -60.957)" fill="none"/>
    </clipPath>
    <clipPath id="clip-path-4">
      <path id="Path_22657" data-name="Path 22657" d="M219.818,61.5V69.8a.546.546,0,0,0,.547.546h3.34a.546.546,0,0,0,.546-.546V64.844a3.887,3.887,0,0,0-3.887-3.887.546.546,0,0,0-.547.546" transform="translate(-219.818 -60.957)" fill="none"/>
    </clipPath>
    <linearGradient id="linear-gradient" x1="0.516" y1="-1.345" x2="0.5" y2="0.5" gradientUnits="objectBoundingBox">
      <stop offset="0" stop-color="#b0b0b0"/>
      <stop offset="0.08" stop-color="#ddd"/>
      <stop offset="1" stop-color="#fff"/>
    </linearGradient>
  </defs>
  <g id="Group_38684" data-name="Group 38684" transform="translate(36.775)">
    <g id="Group_38675" data-name="Group 38675">
      <g id="Group_38674" data-name="Group 38674" clip-path="url(#clip-path)">
        <path id="Path_22647" data-name="Path 22647" d="M50.276,20.835c2.1,2.965.367,6.823-1.72,8.993-2.566,2.669-5.173,2.256-6.36,4.616-1.435,2.852,1.619,4.949.027,7.93-.978,1.832-2.321,1.4-4.267,3.721-2.37,2.833-.046,3.638-1.728,5.711-5.4,6.659-7.566,2.04-10.855,3.79-4.263,2.269-7.115,4.207-9.2,3.753-8.2-1.784-5.676-7.177-9.657-9.255C1.132,47.286-1.5,35.791,2.2,31.74c1.934-2.121,3.846-2.378,4.025-4.145.26-2.549-3.591-3.291-3.981-6.358-.443-3.478,4.172-5.163,3.485-8.1C5.056,10.272.319,10.375.015,8.33-.445,5.227,9.664-.329,20.133.016,25.139.181,33.294,1.8,34.651,5.968c.784,2.409-1.255,3.963-.106,7.074.835,2.263,2.683,3.528,5.131,5.158,2.325,1.548,6.891-2.611,10.6,2.634" transform="translate(0 0)" fill="#eee"/>
        <path id="Path_22648" data-name="Path 22648" d="M47.405,51.853c1.647-.083,2.487,10.9,1.531,12.34s-2.751,2.5-2.87,4.075.583,29.427,1.164,29.025,5.4-7.7,4.442-9.4-2.054-4.327-1.828-6.55.227-5.387.85-5.31.1,5.529.533,6.586.507,1.884,1.129,1.9.635-5.749,1.583-5.648.3,8.6-.023,10.174-1.441,7.006-2.469,9.007-4.155,4.1-4.231,4.779.425,16.9.425,16.9l-8.191.149S42.476,87.9,41.8,86.833s-4.949-9.706-5.864-10.589-1.462-6.268-.98-6.346.751,5.175,1.756,5.26S38.258,65,38.987,65.086s-.707,10.631-.315,11.281,2.677,4.552,3.436,4.468-.418-28.769.234-29.091,1.14-.055,1.541,2.946,1.176,9.559,1.626,9.551a2.458,2.458,0,0,0,1.6-1.654c.023-.658-.431-10.7.3-10.734" transform="translate(-22.148 -32.885)" fill="#bdbdbd"/>
        <path id="Path_22649" data-name="Path 22649" d="M557.369,121.24c-1.187,1.679-.208,3.863.974,5.092,1.453,1.511,2.929,1.278,3.6,2.614.812,1.614-.917,2.8-.015,4.489.554,1.037,1.314.79,2.416,2.107,1.342,1.6.027,2.06.978,3.233,3.059,3.77,4.284,1.155,6.146,2.146,2.414,1.285,4.028,2.382,5.21,2.125,4.644-1.01,3.214-4.063,5.468-5.24,3.047-1.59,4.535-8.1,2.444-10.392-1.095-1.2-2.177-1.347-2.279-2.347-.147-1.444,2.033-1.863,2.254-3.6.251-1.969-2.362-2.923-1.973-4.586.379-1.622,3.062-1.563,3.233-2.722.261-1.757-5.462-4.9-11.39-4.707-2.835.094-7.451,1.009-8.22,3.37-.443,1.364.711,2.244.06,4.006-.473,1.281-1.519,2-2.905,2.92-1.316.876-3.9-1.478-6,1.491" transform="translate(-354.608 -69.698)" fill="#eee"/>
        <path id="Path_22650" data-name="Path 22650" d="M590.337,138.8c-.933-.047-1.408,6.171-.867,6.987s1.558,1.417,1.625,2.307-.33,16.661-.659,16.433-3.06-4.361-2.515-5.323a6.924,6.924,0,0,0,1.035-3.708c-.128-1.258-.129-3.05-.482-3.006s-.057,3.13-.3,3.729-.287,1.067-.639,1.077-.36-3.255-.9-3.2-.172,4.87.013,5.761a29.146,29.146,0,0,0,1.4,5.1c.582,1.133,2.352,2.32,2.4,2.706s-.24,9.571-.24,9.571l4.637.084s-1.713-18.11-1.331-18.713,2.8-5.5,3.32-6,.828-3.549.555-3.593-.425,2.93-.994,2.978-.874-5.754-1.287-5.7.4,6.019.178,6.387-1.516,2.577-1.945,2.53.236-16.288-.132-16.471-.646-.032-.872,1.668-.666,5.412-.92,5.408a1.393,1.393,0,0,1-.9-.937c-.013-.372.244-6.057-.171-6.078" transform="translate(-373.411 -88.317)" fill="#bdbdbd"/>
        <path id="Path_22651" data-name="Path 22651" d="M345.645,88.757h-9.106a3.618,3.618,0,0,1,0-7.236h9.106a13.362,13.362,0,0,0,13.346-13.347V48.16a3.618,3.618,0,1,1,7.237,0V68.173a20.607,20.607,0,0,1-20.583,20.583" transform="translate(-212.014 -28.365)" fill="#949494"/>
        <path id="Path_22652" data-name="Path 22652" d="M268.546,148.051H221.6a6.36,6.36,0,0,1-6.342-6.342V124.935a6.36,6.36,0,0,1,6.342-6.342h46.951a6.36,6.36,0,0,1,6.342,6.342v16.774a6.36,6.36,0,0,1-6.342,6.342" transform="translate(-137.08 -75.524)" fill="#949494"/>
        <path id="Path_22653" data-name="Path 22653" d="M209.943,46.666h0a2.209,2.209,0,0,0-2.209,2.209V67.79h13.391V57.848a11.182,11.182,0,0,0-11.182-11.182" transform="translate(-132.292 -29.718)" fill="#949494"/>
        <path id="Path_22654" data-name="Path 22654" d="M283.314,46.666h0a2.209,2.209,0,0,1,2.209,2.209V67.79H272.132V57.848a11.182,11.182,0,0,1,11.182-11.182" transform="translate(-173.303 -29.718)" fill="#838383"/>
      </g>
    </g>
    <g id="Group_38677" data-name="Group 38677" transform="translate(103.399 22.138)">
      <g id="Group_38676" data-name="Group 38676" clip-path="url(#clip-path-2)">
        <rect id="Rectangle_1425" data-name="Rectangle 1425" width="10.338" height="7.383" transform="translate(-3.024 8.284) rotate(-69.948)" fill="#949494"/>
      </g>
    </g>
    <g id="Group_38679" data-name="Group 38679">
      <g id="Group_38678" data-name="Group 38678" clip-path="url(#clip-path)">
        <path id="Path_22656" data-name="Path 22656" d="M209.943,46.666h0a2.209,2.209,0,0,0-2.209,2.209V67.79h13.391V57.848a11.182,11.182,0,0,0-11.182-11.182" transform="translate(-132.292 -29.718)" fill="#838383"/>
      </g>
    </g>
    <g id="Group_38681" data-name="Group 38681" transform="translate(79.831 22.138)">
      <g id="Group_38680" data-name="Group 38680" clip-path="url(#clip-path-4)">
        <rect id="Rectangle_1427" data-name="Rectangle 1427" width="5.743" height="9.929" transform="translate(-1.342 0.196) rotate(-8.306)" fill="#949494"/>
      </g>
    </g>
    <ellipse id="Ellipse_371" data-name="Ellipse 371" cx="141" cy="31.5" rx="141" ry="31.5" transform="translate(-36.775 75.986)" fill="url(#linear-gradient)"/>
    <g id="Group_38683" data-name="Group 38683">
      <g id="Group_38682" data-name="Group 38682" clip-path="url(#clip-path)">
        <path id="Path_22658" data-name="Path 22658" d="M238.619,97.34H213.626a5.893,5.893,0,0,1-5.893-5.893V75.86a5.893,5.893,0,0,1,5.893-5.893h24.992a5.893,5.893,0,0,1,5.893,5.893V91.447a5.893,5.893,0,0,1-5.893,5.893" transform="translate(-132.291 -44.557)" fill="#d5d5d5"/>
        <path id="Path_22659" data-name="Path 22659" d="M247.932,129.828h-7.857a4.423,4.423,0,1,1,0-8.847h7.857a4.423,4.423,0,0,1,0,8.847" transform="translate(-150.071 -77.045)" fill="#777"/>
        <path id="Path_22660" data-name="Path 22660" d="M233.534,111.989a.943.943,0,0,1-.859-.551,2.6,2.6,0,0,0-4.143,0,.944.944,0,0,1-1.716-.787,4.432,4.432,0,0,1,7.575,0,.944.944,0,0,1-.857,1.337" transform="translate(-144.39 -69.11)"/>
        <path id="Path_22661" data-name="Path 22661" d="M269.621,112a.947.947,0,0,1-.859-1.346,4.432,4.432,0,0,1,7.575,0,.944.944,0,1,1-1.716.787,2.6,2.6,0,0,0-4.15.014.931.931,0,0,1-.85.545" transform="translate(-171.101 -69.11)"/>
        <path id="Path_22662" data-name="Path 22662" d="M256.122,125.43a.944.944,0,0,0-1.325-.161,2.279,2.279,0,0,1-.932.419v-1.268a1.328,1.328,0,0,0,.533-.515l.644-1.116a1.341,1.341,0,0,0-1.161-2.012h-1.289a1.341,1.341,0,0,0-1.162,2.012l.645,1.116a1.329,1.329,0,0,0,.533.515V125.7a2.321,2.321,0,0,1-.954-.4.944.944,0,0,0-1.12,1.519,4.7,4.7,0,0,0,5.428-.072.944.944,0,0,0,.161-1.325" transform="translate(-159.303 -76.915)"/>
        <path id="Path_22663" data-name="Path 22663" d="M271.424,186.5H204.9a1.455,1.455,0,0,1-1.454-1.455V151.462h69.435v33.587a1.455,1.455,0,0,1-1.455,1.455" transform="translate(-129.56 -96.456)" fill="#d5d5d5"/>
        <path id="Path_22664" data-name="Path 22664" d="M270.1,162.914H200.408a1.532,1.532,0,0,1-1.511-1.788l1.637-9.664H269.97l1.637,9.664a1.532,1.532,0,0,1-1.511,1.788" transform="translate(-126.65 -96.456)" fill="#b7b7b7"/>
      </g>
    </g>
  </g>
</svg>
